<svg width="1512" height="982" viewBox="0 0 1512 982" fill="none" xmlns="http://www.w3.org/2000/svg">
<g clip-path="url(#clip0_2503_2686)">
<rect width="1512" height="982" fill="black"/>
<g clip-path="url(#clip1_2503_2686)">
<path d="M1512 0H0V982H1512V0Z" fill="url(#paint0_radial_2503_2686)"/>
<g style="mix-blend-mode:plus-lighter" opacity="0.4" filter="url(#filter0_f_2503_2686)">
<ellipse cx="202.79" cy="152.093" rx="202.79" ry="152.093" transform="matrix(0.70366 -0.710537 0.70366 0.710537 773.319 779.179)" fill="#FF007A"/>
</g>
<g style="mix-blend-mode:plus-lighter" opacity="0.4" filter="url(#filter1_f_2503_2686)">
<ellipse cx="261.698" cy="152.732" rx="261.698" ry="152.732" transform="matrix(-0.965291 -0.261177 0.256479 -0.96655 537.318 393.079)" fill="#FF007A"/>
</g>
<g style="mix-blend-mode:color-dodge" opacity="0.7" filter="url(#filter2_f_2503_2686)">
<ellipse cx="756" cy="454.199" rx="336.81" ry="284.552" fill="#D9D9D9"/>
</g>
</g>
<g style="mix-blend-mode:overlay" opacity="0.49" filter="url(#filter3_f_2503_2686)">
<ellipse cx="734.856" cy="497.241" rx="758.103" ry="273.759" fill="#D9D9D9"/>
</g>
<g style="mix-blend-mode:darken" opacity="0.2" filter="url(#filter4_f_2503_2686)">
<ellipse cx="797.87" cy="320.199" rx="378.681" ry="255.174" fill="#70D6FD"/>
</g>
<g style="mix-blend-mode:plus-darker" opacity="0.3">
<rect width="1512" height="982" fill="url(#paint1_radial_2503_2686)"/>
</g>
<g opacity="0.5">
<path d="M1511.88 451.189H1453.16L1464.14 448.535H1511.96V444.996H1476.25L1489.19 441.457H1511.96V437.919H1502.52L1511.96 435.335V429.956H1448.62L1463.64 425.533H1511.96V421.994H1474.83L1492.18 416.686H1511.96V413.147H1503.96L1511.96 410.697V403.416H1443.51L1463.24 396.338H1511.97V393.684H1472.66L1495.64 385.722H1511.97V382.184H1506.21L1511.97 380.193V376.601L1495.85 382.184H1406.84L1428.96 373.337H1511.97V368.913H1437.29L1462.73 359.182H1511.97V355.643H1472.07L1500.83 344.142H1511.97V340.603H1509.56L1511.97 339.639V336.03L1500.53 340.603H1394.51L1422.59 327.333H1511.96V323.794H1429.42L1462.01 308.755H1511.96V304.331H1469.83L1507.26 286.638H1511.96V280.772L1506.94 283.099H1376.82L1412.75 262.751H1511.96V259.212H1418.88L1460.99 235.326L1511.96 235.326V230.903L1467.3 230.903L1511.96 205.273V199.054L1351.72 199.054L1398.17 164.551L1511.96 164.551V161.013L1403.22 161.013L1459.2 119.432H1511.96V115.894H1464.15L1511.96 80.6478V76.8083L1458.94 115.894L1261.96 115.894L1310.81 65.4666L1511.96 65.4666V61.9279L1314.21 61.9279L1373.5 0L1369.5 0L1310.21 61.9279L1091.19 61.9279L1126.76 0L1123.83 0L1088.26 61.9279L868.336 61.9279L880.195 0L877.99 0L866.131 61.9279L645.851 61.9279L633.992 0L631.787 0L643.646 61.9279L423.723 61.9279L388.156 0L385.226 0L420.799 61.9279L201.773 61.9279L142.488 0L138.488 0L197.773 61.9279L0.0302734 61.9279L0.0302734 65.4666L201.175 65.4666L250.029 115.894L53.0476 115.894L0.0302734 76.8083L0.0302734 80.6478L47.8399 115.894H0.0302734L0.0302734 119.432H52.7851L108.769 161.013H0.0302734L0.0302734 164.551H113.819L160.274 199.054L0.0302734 199.054L0.0302734 205.344L44.2753 230.903H0.0302734L0.0302734 235.326H51.0002L93.1138 259.212H0.0302734L0.0302734 262.751H99.2403L135.17 283.099H5.0543L0.0302734 280.772L0.0302734 286.638H4.72881L42.1649 304.331H0.0302734L0.0302734 308.755H49.9818L82.5723 323.794H0.0302734L0.0302734 327.333H89.4022L117.478 340.603H11.4695L0.0302734 336.03L0.0302734 339.639L2.43991 340.603H0.0302734L0.0302734 344.142H11.165L39.9232 355.643H0.0302734L0.0302734 359.182H49.2731L74.7082 368.913H0.0302734L0.0302734 373.337H83.0343L105.157 382.184H16.147L0.0302734 376.601L0.0302734 380.193L5.78401 382.184H0.0302734L0.0302734 385.722H16.3623L39.3353 393.684H0.0302734L0.0302734 396.338H48.7533L68.4924 403.416H0.0302734L0.0302734 410.653L8.1989 413.147H0.0302734L0.0302734 416.686H19.8114L37.1671 421.994H0.0302734L0.0302734 425.533H48.3543L63.3687 429.956H0.0302734L0.0302734 435.194L9.99432 437.919H0.0302734L0.0302734 441.457H22.809L35.7444 444.996H0.0302734L0.0302734 448.535H48.2178L59.1951 451.189H0.10902L0.0302734 451.171L0.0302734 454.728L1511.96 454.71V451.171L1511.88 451.189ZM1379.82 451.189L1389.64 448.535H1451.04L1440.06 451.189H1379.82ZM716.885 429.956L716.003 425.533H796.356L795.474 429.956H716.891H716.885ZM794.792 433.495L794.02 437.919H718.334L717.563 433.495H794.787H794.792ZM711.798 403.416L710.481 396.338H801.879L800.561 403.416H711.798ZM799.879 406.955L798.724 413.147H713.625L712.47 406.955H799.874H799.879ZM827.687 262.751L823.697 283.099H688.663L684.673 262.751L827.692 262.751H827.687ZM683.99 259.212L679.313 235.326L833.052 235.326L828.375 259.212L683.996 259.212H683.99ZM818.904 308.755L815.943 323.794H696.417L693.456 308.755H818.909H818.904ZM693.261 304.331L689.86 286.638H822.5L819.098 304.331H693.261ZM814.83 327.333L812.279 340.603H700.081L697.53 327.333H814.83ZM804.436 382.184H707.919L706.218 373.337H806.137L804.436 382.184ZM806.268 385.722H901.667L897.162 393.684H804.766L806.268 385.722ZM809.087 359.182L807.129 368.913H705.22L703.262 359.182H809.082H809.087ZM703.247 355.643L701.036 344.142H811.323L809.113 355.643H703.252H703.247ZM707.593 393.684L615.198 393.684L610.693 385.722L706.092 385.722L707.593 393.684ZM618.253 403.416H530.745L524.167 396.338H614.305L618.253 403.416ZM520.765 393.684L513.263 385.722H607.764L612.268 393.684H520.765ZM603.832 373.337L703.394 373.337L705.094 382.184L608.935 382.184L603.832 373.337ZM601.475 368.913L595.605 359.182L701.063 359.182L703.021 368.913L601.475 368.913ZM594.177 355.643L587.542 344.142L697.472 344.142L699.682 355.643L594.177 355.643ZM814.888 344.142H924.818L918.182 355.643H812.678L814.888 344.142ZM916.754 359.182L910.885 368.913H809.339L811.297 359.182H916.754ZM908.528 373.337L903.425 382.184H807.265L808.966 373.337H908.528ZM904.596 385.722H999.097L991.595 393.684H900.092L904.596 385.722ZM988.193 396.338L981.615 403.416H894.107L898.055 396.338H988.193ZM982.208 406.955H1067.22L1059.14 413.147H976.444L982.214 406.955H982.208ZM972.439 413.147H888.6L892.06 406.955H978.208L972.439 413.147ZM891.172 403.416H802.766L804.084 396.338H895.12L891.172 403.416ZM802.556 393.684H709.798L708.297 385.722H804.058L802.556 393.684ZM709.588 403.416L621.182 403.416L617.234 396.338L708.271 396.338L709.588 403.416ZM623.76 413.147H539.921L534.152 406.955H620.3L623.76 413.147ZM535.921 413.147H453.221L445.147 406.955H530.157L535.926 413.147H535.921ZM448.014 413.147H366.553L356.169 406.955H439.939L448.014 413.147ZM431.167 396.338H520.166L526.744 403.416H440.375L431.162 396.338H431.167ZM426.4 393.684L415.895 385.722H509.257L516.759 393.684H426.395H426.4ZM501.619 373.337H600.293L605.396 382.184H510.129L501.619 373.337ZM497.892 368.913L488.111 359.182H592.676L598.545 368.913H497.897H497.892ZM485.292 355.643L474.231 344.142H583.274L589.909 355.643H485.287H485.292ZM577.525 327.333L694.469 327.333L697.02 340.603L585.185 340.603L577.525 327.333ZM575.042 323.794L566.154 308.755L691.246 308.755L694.206 323.794L575.042 323.794ZM564.558 304.331L554.348 286.638H686.631L690.033 304.331L564.553 304.331H564.558ZM825.723 286.638H958.007L947.796 304.331H822.316L825.718 286.638H825.723ZM946.206 308.755L937.318 323.794H818.153L821.114 308.755H946.206ZM934.835 327.333L927.175 340.603H815.334L817.886 327.333H934.829H934.835ZM929.086 344.142H1038.13L1027.07 355.643H922.445L929.081 344.142H929.086ZM1024.25 359.182L1014.47 368.913H913.82L919.689 359.182H1024.25H1024.25ZM1010.74 373.337L1002.23 382.184H906.958L912.061 373.337H1010.74ZM1003.1 385.722H1096.46L1085.95 393.684H995.59L1003.09 385.722H1003.1ZM1081.19 396.338L1071.98 403.416H985.61L992.188 396.338H1081.19H1081.19ZM1072.42 406.955L1156.19 406.955L1145.81 413.147L1064.35 413.147L1072.42 406.955ZM1140.14 416.686L1130.96 421.994H1052.05L1059.2 416.686H1140.14ZM1047.68 421.994H967.53L972.633 416.686H1054.83L1047.68 421.994ZM964.38 421.994H883.077L886.138 416.686H969.483L964.38 421.994ZM885.671 413.147H800.934L802.089 406.955H889.13L885.671 413.147ZM711.426 413.147L626.689 413.147L623.23 406.955L710.271 406.955L711.426 413.147ZM629.283 421.994H547.98L542.877 416.686H626.222L629.283 421.994ZM544.83 421.994H464.676L457.531 416.686H539.727L544.83 421.994ZM460.309 421.994H381.405L372.217 416.686H453.164L460.309 421.994ZM375.756 421.994H298.154L286.925 416.686H366.569L375.756 421.994ZM279.895 413.147L267.201 406.955H349.685L360.07 413.147H279.89H279.895ZM338.199 396.338H425.965L435.178 403.416H350.048L338.204 396.338H338.199ZM332.073 393.684L318.565 385.722H410.693L421.198 393.684H332.073ZM399.48 373.337H497.02L505.53 382.184H411.391L399.48 373.337ZM394.382 368.913L380.685 359.182H484.111L493.891 368.913H394.382ZM376.47 355.643L360.983 344.142H468.902L479.964 355.643H376.47ZM457.705 327.333H573.761L581.421 340.603H470.472L457.71 327.333H457.705ZM453.846 323.794L439.031 308.755H563.225L572.113 323.794H453.841H453.846ZM436.044 304.331L419.03 286.638H550.426L560.637 304.331H436.049H436.044ZM539.806 262.751H682.463L686.453 283.099H551.78L539.806 262.751ZM537.764 259.212L523.726 235.326L677.103 235.326L681.78 259.212H537.758H537.764ZM521.683 230.903L505.094 202.593L670.892 202.593L676.42 230.903L521.683 230.903ZM673.102 202.593L839.257 202.593L833.729 230.903L678.63 230.903L673.102 202.593ZM841.468 202.593H1007.27L990.682 230.903H835.945L841.473 202.593H841.468ZM988.634 235.326L974.596 259.212H830.574L835.252 235.326H988.629H988.634ZM972.554 262.751L960.579 283.099H825.907L829.897 262.751H972.554ZM961.934 286.638H1093.33L1076.32 304.331H951.728L961.939 286.638H961.934ZM1073.33 308.755L1058.51 323.794H940.242L949.13 308.755H1073.32H1073.33ZM1054.66 327.333L1041.89 340.603H930.945L938.604 327.333H1054.66H1054.66ZM1043.45 344.142L1151.37 344.142L1135.88 355.643H1032.39L1043.45 344.142ZM1131.67 359.182L1117.97 368.913H1018.46L1028.24 359.182H1131.67ZM1112.88 373.337L1100.97 382.184H1006.83L1015.34 373.337H1112.88ZM1101.67 385.722L1193.8 385.722L1180.29 393.684L1091.16 393.684L1101.67 385.722ZM1174.16 396.338L1162.32 403.416L1077.19 403.416L1086.4 396.338L1174.17 396.338H1174.16ZM1162.67 406.955H1245.15L1232.46 413.147H1152.28L1162.66 406.955H1162.67ZM1225.44 416.686L1214.21 421.994L1136.6 421.994L1145.79 416.686H1225.44ZM1206.37 425.533L1196.66 429.956L1122.99 429.956L1130.93 425.533L1206.37 425.533H1206.37ZM1116.51 429.956H1041.56L1047.75 425.533H1124.47L1116.52 429.956H1116.51ZM1036.35 429.956H960.165L964.58 425.533H1042.54L1036.35 429.956ZM956.164 429.956H878.835L881.487 425.533H960.585L956.17 429.956H956.164ZM798.797 421.994L799.816 416.686H884.069L881.009 421.994H798.797ZM878.557 425.533L875.906 429.956H797.679L798.561 425.533H878.552H878.557ZM797.464 421.994H714.89L713.872 416.686H798.488L797.469 421.994H797.464ZM714.681 429.956L636.454 429.956L633.803 425.533L713.793 425.533L714.675 429.956H714.681ZM631.351 421.994L628.29 416.686L712.544 416.686L713.562 421.994L631.351 421.994ZM633.524 429.956H556.195L551.78 425.533H630.879L633.53 429.956H633.524ZM552.195 429.956H476.005L469.821 425.533H547.78L552.195 429.956ZM470.798 429.956H395.847L387.899 425.533H464.619L470.803 429.956H470.798ZM389.368 429.956H315.699L305.981 425.533H381.415L389.363 429.956H389.368ZM307.924 429.956H235.566L224.085 425.533L298.206 425.533L307.924 429.956ZM214.908 421.994L201.637 416.686L279.958 416.686L291.187 421.994L214.908 421.994ZM193.253 413.147L178.254 406.955L259.432 406.955L272.125 413.147L193.258 413.147H193.253ZM245.241 396.338H331.721L343.564 403.416H259.715L245.241 396.338ZM237.755 393.684L221.25 385.722L312.092 385.722L325.6 393.684H237.761H237.755ZM297.366 373.337H393.678L405.59 382.184H312.685L297.372 373.337H297.366ZM290.904 368.913L273.296 359.182H375.483L389.179 368.913H290.904ZM267.679 355.643L247.767 344.142H354.463L369.95 355.643H267.679ZM337.947 327.333H452.87L465.632 340.603H355.812L337.942 327.333H337.947ZM332.713 323.794L311.971 308.755H435.026L449.84 323.794H332.708H332.713ZM307.598 304.331L283.775 286.638H414.042L431.057 304.331H307.598ZM395.112 262.751H536.876L548.851 283.099H415.071L395.112 262.751ZM391.71 259.212L368.317 235.326H520.796L534.834 259.212H391.71ZM364.91 230.903L337.265 202.593L502.165 202.593L518.749 230.903H364.905H364.91ZM482.72 164.551L664.12 164.551L670.756 199.054L502.632 199.054L482.72 164.551ZM665.296 164.551L847.059 164.551L840.423 199.054L671.932 199.054L665.296 164.551ZM848.24 164.551H1029.64L1009.73 199.054H841.599L848.234 164.551H848.24ZM1010.19 202.593L1175.09 202.593L1147.44 230.903L993.6 230.903L1010.18 202.593H1010.19ZM1144.04 235.326L1120.65 259.212H977.526L991.564 235.326L1144.05 235.326H1144.04ZM1117.25 262.751L1097.29 283.099H963.509L975.483 262.751H1117.25ZM1098.32 286.638L1228.59 286.638L1204.76 304.331L1081.3 304.331L1098.32 286.638ZM1200.38 308.755L1179.64 323.794L1062.51 323.794L1077.32 308.755L1200.38 308.755H1200.38ZM1174.41 327.333L1156.54 340.603L1046.72 340.603L1059.48 327.333L1174.4 327.333H1174.41ZM1157.89 344.142H1264.59L1244.68 355.643L1142.41 355.643L1157.89 344.142ZM1239.06 359.182L1221.46 368.913L1123.18 368.913L1136.88 359.182L1239.06 359.182ZM1214.99 373.337L1199.68 382.184L1106.77 382.184L1118.69 373.337L1215 373.337H1214.99ZM1200.27 385.722H1291.11L1274.6 393.684H1186.77L1200.27 385.722H1200.27ZM1267.11 396.338L1252.64 403.416H1168.79L1180.63 396.338H1267.11ZM1252.93 406.955H1334.11L1319.11 413.147H1240.24L1252.93 406.955H1252.93ZM1310.72 416.686L1297.45 421.994H1221.17L1232.4 416.686H1310.72ZM1288.27 425.533L1276.79 429.956H1204.44L1214.15 425.533H1288.28H1288.27ZM1277.04 433.495H1346.71L1335.16 437.919H1267.03L1277.04 433.495ZM1325.63 441.457L1315.42 444.996H1248.8L1257.65 441.457H1325.64H1325.63ZM1188.48 437.919L1196.95 433.495H1267.95L1257.94 437.919H1188.48H1188.48ZM1249.77 441.457L1240.92 444.996H1172.95L1180.43 441.457H1249.76H1249.77ZM1109.93 437.919L1116.86 433.495L1189.16 433.495L1180.69 437.919L1109.92 437.919H1109.93ZM1173.89 441.457L1166.41 444.996L1097.1 444.996L1103.23 441.457L1173.9 441.457H1173.89ZM1031.4 437.919L1036.8 433.495H1110.39L1103.46 437.919H1031.4ZM1098.01 441.457L1091.89 444.996H1021.28L1026.04 441.457H1098.02H1098.01ZM952.91 437.919L956.758 433.495H1031.59L1026.2 437.919H952.91ZM1022.12 441.457L1017.35 444.996H945.481L948.883 441.457H1022.12ZM874.483 437.919L876.793 433.495H952.763L948.914 437.919H874.483ZM946.19 441.457L942.788 444.996H869.759L871.801 441.457H946.195H946.19ZM796.23 437.919L797.002 433.495H873.864L871.554 437.919H796.23ZM870.189 441.457L868.147 444.996H794.204L794.886 441.457H870.189ZM718.156 444.996L644.213 444.996L642.171 441.457L717.473 441.457L718.156 444.996ZM640.806 437.919L638.496 433.495L715.358 433.495L716.129 437.919L640.806 437.919ZM642.607 444.996H569.577L566.175 441.457H640.57L642.612 444.996H642.607ZM563.451 437.919L559.603 433.495H635.572L637.882 437.919H563.456H563.451ZM566.879 444.996H495.009L490.243 441.457H563.477L566.879 444.996ZM486.158 437.919L480.767 433.495H555.597L559.445 437.919H486.158ZM491.083 444.996H420.473L414.347 441.457H486.321L491.088 444.996H491.083ZM408.903 437.919L401.973 433.495H475.564L480.956 437.919H408.903ZM415.255 444.996H345.953L338.467 441.457H409.134L415.26 444.996H415.255ZM331.658 437.919L323.185 433.495H395.49L402.419 437.919H331.653H331.658ZM339.412 444.996H271.443L262.592 441.457H331.92L339.406 444.996H339.412ZM254.429 437.919L244.417 433.495H315.415L323.888 437.919H254.434H254.429ZM263.558 444.996L196.938 444.996L186.728 441.457L254.712 441.457L263.563 444.996H263.558ZM177.199 437.919L165.65 433.495L235.325 433.495L245.336 437.919L177.205 437.919H177.199ZM187.699 444.996H122.434L110.863 441.457H177.488L187.699 444.996ZM99.9753 437.919L86.8824 433.495H155.224L166.773 437.919H99.9753ZM142.189 425.533H214.987L226.468 429.956H155.434L142.183 425.533H142.189ZM131.668 421.994L116.355 416.686H193.337L206.608 421.994H131.668ZM106.611 413.147L89.3025 406.955H169.151L184.15 413.147H106.606H106.611ZM152.3 396.338L237.467 396.338L251.94 403.416L169.403 403.416L152.3 396.338ZM143.449 393.684L123.94 385.722H213.47L229.975 393.684L143.443 393.684H143.449ZM195.269 373.337L290.3 373.337L305.614 382.184L213.984 382.184L195.264 373.337H195.269ZM187.436 368.913L165.918 359.182L266.818 359.182L284.426 368.913L187.436 368.913ZM158.909 355.643L134.576 344.142L240.002 344.142L259.915 355.643L158.909 355.643ZM218.226 327.333L331.92 327.333L349.79 340.603H241.199L218.226 327.333ZM211.617 323.794L184.953 308.755L306.774 308.755L327.516 323.794L211.622 323.794H211.617ZM179.178 304.331L148.546 286.638L277.585 286.638L301.409 304.331L179.178 304.331ZM250.491 262.751H391.117L411.076 283.099H278.436L250.491 262.751ZM245.724 259.212L212.971 235.326L364.311 235.326L387.704 259.212H245.719H245.724ZM208.21 230.903L169.508 202.593H333.269L360.915 230.903L208.21 230.903ZM300.296 164.551L480.793 164.551L500.705 199.054L333.479 199.054L300.296 164.551ZM297.225 161.013L257.237 119.432L454.681 119.432L478.672 161.013L297.225 161.013ZM456.949 119.432L655.29 119.432L663.291 161.013L480.945 161.013L456.954 119.432H456.949ZM656.828 119.432L855.532 119.432L847.536 161.013L664.829 161.013L656.828 119.432ZM857.065 119.432L1055.41 119.432L1031.41 161.013L849.064 161.013L857.059 119.432H857.065ZM1057.68 119.432L1255.13 119.432L1215.14 161.013H1033.69L1057.68 119.432ZM1212.06 164.551L1178.88 199.054L1011.65 199.054L1031.57 164.551H1212.06ZM1179.09 202.593L1342.85 202.593L1304.15 230.903L1151.45 230.903L1179.09 202.593ZM1299.39 235.326L1266.64 259.212L1124.65 259.212L1148.04 235.326L1299.39 235.326ZM1261.87 262.751L1233.92 283.099L1101.28 283.099L1121.24 262.751L1261.87 262.751ZM1234.77 286.638H1363.81L1333.18 304.331H1210.95L1234.77 286.638ZM1327.41 308.755L1300.74 323.794H1184.85L1205.59 308.755H1327.41H1327.41ZM1294.13 327.333L1271.16 340.603H1162.57L1180.44 327.333H1294.13ZM1272.36 344.142H1377.78L1353.45 355.643H1252.45L1272.36 344.142ZM1346.44 359.182L1324.92 368.913H1227.93L1245.54 359.182H1346.44ZM1317.09 373.337L1298.37 382.184H1206.74L1222.05 373.337H1317.08H1317.09ZM1298.88 385.722H1388.41L1368.91 393.684H1282.37L1298.88 385.722H1298.88ZM1360.06 396.338L1342.96 403.416H1260.42L1274.89 396.338H1360.06ZM1343.2 406.955H1423.05L1405.74 413.147H1328.2L1343.2 406.955H1343.2ZM1396.01 416.686L1380.69 421.994H1305.75L1319.02 416.686H1396.01ZM1370.17 425.533L1356.92 429.956H1285.89L1297.37 425.533H1370.17H1370.17ZM1357.14 433.495H1425.48L1412.38 437.919H1345.59L1357.14 433.495ZM1401.5 441.457L1389.93 444.996H1324.66L1334.87 441.457H1401.5ZM1306.47 451.189L1315.14 448.535H1377.88L1368.06 451.189H1306.47ZM1233.13 451.189L1240.63 448.535H1304.71L1296.04 451.189H1233.13ZM1159.79 451.189L1166.14 448.535H1231.54L1224.03 451.189H1159.79ZM1086.46 451.189L1091.66 448.535L1158.37 448.535L1152.02 451.189L1086.47 451.189H1086.46ZM1013.15 451.189L1017.19 448.535H1085.18L1079.99 451.189H1013.15ZM939.869 451.189L942.756 448.535H1011.99L1007.94 451.189H939.869ZM866.661 451.189L868.394 448.535H938.761L935.874 451.189H866.661ZM793.621 451.189L794.199 448.535H865.464L863.732 451.189H793.621ZM720.366 448.535H791.989L791.411 451.189H720.943L720.366 448.535ZM718.345 441.457H794.015L793.332 444.996H719.022L718.34 441.457H718.345ZM646.896 448.535L718.161 448.535L718.739 451.189L648.628 451.189L646.896 448.535ZM573.598 448.535H643.966L645.699 451.189H576.486L573.598 448.535ZM500.369 448.535H569.598L572.485 451.189H504.412L500.369 448.535ZM427.172 448.535H495.162L499.204 451.189H432.369L427.172 448.535ZM353.99 448.535H420.699L425.896 451.189H360.342L353.99 448.535ZM280.819 448.535H346.215L352.568 451.189H288.326L280.819 448.535ZM207.648 448.535L271.721 448.535L279.228 451.189L216.31 451.189L207.648 448.535ZM134.482 448.535H197.222L205.884 451.189H144.299L134.477 448.535H134.482ZM61.3213 448.535H122.722L132.545 451.189H72.2985L61.3213 448.535ZM34.9989 441.457H100.264L111.834 444.996H47.9291L34.9937 441.457H34.9989ZM75.1229 433.495L88.2158 437.919H22.7512L8.12016 433.495H75.1229ZM60.2976 425.533H131.768L145.018 429.956H75.3171L60.3028 425.533H60.2976ZM31.0774 416.686H106.716L122.03 421.994H48.4331L31.0774 416.686ZM78.8817 406.955L96.1902 413.147H19.9794L0.366258 406.955H78.887H78.8817ZM59.3578 396.338H143.202L160.306 403.416H79.0917L59.3526 396.338H59.3578ZM114.848 385.722L134.356 393.684H49.1471L26.6361 385.722H114.843H114.848ZM93.1821 373.337H186.911L205.632 382.184H115.305L93.1821 373.337ZM58.5494 359.182H158.143L179.661 368.913H83.9845L58.5494 359.182ZM126.014 344.142L150.651 355.643H49.6983L20.5831 344.142H126.014ZM98.5158 327.333H210.934L233.907 340.603L126.592 340.603L98.5158 327.333ZM57.9404 308.755H178.475L205.139 323.794H90.5309L57.9404 308.755ZM141.102 286.638L171.734 304.331H50.7797L13.3437 286.638H141.107H141.102ZM105.897 262.751L245.283 262.751L273.228 283.099L141.826 283.099L105.897 262.751ZM57.6622 235.326L207.769 235.326L240.522 259.212L99.7705 259.212L57.6569 235.326H57.6622ZM164.301 202.593L203.002 230.903L51.5357 230.903L1.77319 202.593L164.295 202.593H164.301ZM117.94 164.551H297.293L330.477 199.054H164.395L117.94 164.551ZM253.888 119.432L293.881 161.013L113.572 161.013L57.5887 119.432L253.888 119.432ZM452.334 115.894L254.213 115.894L205.359 65.4666L423.025 65.4666L452.339 115.894H452.334ZM654.282 115.894L455.263 115.894L425.954 65.4666L644.512 65.4666L654.282 115.894ZM865.637 65.4666L855.868 115.894L656.487 115.894L646.717 65.4666L865.637 65.4666ZM1086.41 65.4666L1057.1 115.894L858.078 115.894L867.848 65.4666L1086.41 65.4666ZM1258.15 115.894L1060.03 115.894L1089.34 65.4666L1307.01 65.4666L1258.15 115.894H1258.15ZM1398.79 161.013L1218.48 161.013L1258.47 119.432L1454.77 119.432L1398.79 161.013ZM1347.96 199.054L1181.88 199.054L1215.07 164.551L1394.42 164.551L1347.96 199.054ZM1460.82 230.903H1309.36L1348.06 202.593L1510.58 202.593L1460.82 230.903ZM1412.59 259.212H1271.84L1304.6 235.326H1454.7L1412.59 259.212ZM1370.53 283.099H1239.13L1267.07 262.751H1406.46L1370.53 283.099ZM1461.58 304.331H1340.63L1371.26 286.638H1499.02L1461.59 304.331H1461.58ZM1421.82 323.794H1307.22L1333.88 308.755H1454.41L1421.82 323.794ZM1385.76 340.603H1278.45L1301.42 327.333H1413.84L1385.76 340.603ZM1462.66 355.643H1361.7L1386.34 344.142H1491.77L1462.66 355.643ZM1428.38 368.913H1332.7L1354.22 359.182H1453.81L1428.38 368.913ZM1397.05 382.184H1306.72L1325.44 373.337H1419.17L1397.05 382.184ZM1463.21 393.684H1378L1397.51 385.722H1485.72L1463.21 393.684ZM1433.26 403.416H1352.05L1369.15 396.338H1453L1433.26 403.416H1433.26ZM1492.38 413.147H1416.17L1433.48 406.955H1512L1492.39 413.147H1492.38ZM1463.93 421.994H1390.33L1405.64 416.686H1481.28L1463.93 421.994ZM1437.05 429.956H1367.35L1380.6 425.533H1452.07L1437.05 429.956H1437.05ZM1424.14 437.919L1437.24 433.495H1504.24L1489.61 437.919H1424.14ZM1400.52 444.996L1412.09 441.457H1477.36L1464.42 444.996H1400.51H1400.52Z" fill="url(#paint2_linear_2503_2686)"/>
</g>
<g opacity="0.5">
<path d="M0.115702 530.811L58.8395 530.811L47.8623 533.465L0.0370069 533.465L0.0370066 537.004L35.7458 537.004L22.8104 540.542L0.0370063 540.542L0.037006 544.081L9.47607 544.081L0.0370058 546.665L0.0370053 552.043L63.3753 552.043L48.361 556.467L0.0370049 556.467L0.0370046 560.006L37.1738 560.006L19.8181 565.314L0.0370042 565.314L0.0370039 568.852L8.04289 568.852L0.0370037 571.303L0.037003 578.584L68.4939 578.584L48.7547 585.661L0.0317475 585.661L0.0317473 588.315L39.3367 588.315L16.3637 596.278L0.0317466 596.278L0.0317463 599.816L5.78547 599.816L0.0317461 601.807L0.0317458 605.399L16.1485 599.816L105.158 599.816L83.0357 608.663L0.0317455 608.663L0.0317452 613.087L74.7044 613.087L49.2692 622.818L0.0317443 622.818L0.031744 626.357L39.9247 626.357L11.1665 637.858L0.031743 637.858L0.0317427 641.396L2.4413 641.396L0.0317426 642.361L0.0317423 645.97L11.4709 641.396L117.485 641.396L89.409 654.667L0.0369965 654.667L0.0369962 658.205L82.579 658.205L49.9884 673.245L0.0369949 673.245L0.0369945 677.669L42.1715 677.669L4.73551 695.362L0.036993 695.362L0.0369925 701.228L5.06092 698.901L135.176 698.901L99.247 719.249L0.0369909 719.249L0.0369906 722.787L93.1204 722.787L51.0069 746.674L0.0369885 746.674L0.0369881 751.097L44.7019 751.097L0.0369859 776.727L0.0369854 782.946L160.281 782.946L113.826 817.449L0.0369824 817.449L0.0369821 820.987L108.781 820.987L52.7971 862.568L0.0421053 862.568L0.042105 866.106L47.8517 866.106L0.0421019 901.352L0.0421016 905.192L53.0596 866.106L250.041 866.106L201.187 916.533L0.0421006 916.533L0.0421003 920.072L197.785 920.072L138.499 982L142.5 982L201.785 920.072L420.811 920.072L385.238 982L388.168 982L423.74 920.072L643.663 920.072L631.804 982L634.009 982L645.868 920.072L866.148 920.072L878.007 982L880.212 982L868.353 920.072L1088.28 920.072L1123.84 982L1126.77 982L1091.2 920.072L1310.23 920.072L1369.51 982L1373.51 982L1314.23 920.072L1511.97 920.072L1511.97 916.533L1310.82 916.533L1261.97 866.106L1458.95 866.106L1511.97 905.192L1511.97 901.352L1464.16 866.106L1511.97 866.106L1511.97 862.568L1459.21 862.568L1403.23 820.987L1511.97 820.987L1511.97 817.449L1398.18 817.449L1351.73 782.946L1511.97 782.946L1511.97 776.656L1467.72 751.097L1511.97 751.097L1511.97 746.674L1461 746.674L1418.89 722.788L1511.97 722.788L1511.97 719.249L1412.76 719.249L1376.83 698.901L1506.94 698.901L1511.97 701.228L1511.97 695.362L1507.27 695.362L1469.83 677.669L1511.97 677.669L1511.97 673.245L1462.02 673.245L1429.43 658.206L1511.97 658.206L1511.97 654.667L1422.6 654.667L1394.52 641.397L1500.53 641.397L1511.97 645.97L1511.97 642.361L1509.56 641.397L1511.97 641.397L1511.97 637.858L1500.83 637.858L1472.08 626.357L1511.97 626.357L1511.97 622.818L1462.73 622.818L1437.29 613.087L1511.97 613.087L1511.97 608.663L1428.96 608.663L1406.84 599.816L1495.85 599.816L1511.97 605.399L1511.97 601.807L1506.22 599.816L1511.97 599.816L1511.97 596.278L1495.64 596.278L1472.66 588.316L1511.97 588.316L1511.97 585.662L1463.25 585.661L1443.51 578.584L1511.97 578.584L1511.97 571.347L1503.8 568.853L1511.97 568.853L1511.97 565.314L1492.19 565.314L1474.83 560.006L1511.97 560.006L1511.97 556.467L1463.64 556.467L1448.63 552.043L1511.97 552.044L1511.97 546.806L1502 544.081L1511.97 544.081L1511.97 540.543L1489.19 540.543L1476.25 537.004L1511.97 537.004L1511.97 533.465L1463.78 533.465L1452.8 530.811L1511.89 530.811L1511.97 530.829L1511.97 527.272L0.0370075 527.29L0.0370072 530.829L0.115702 530.811ZM132.184 530.811L122.362 533.465L60.9604 533.465L71.9377 530.811L132.184 530.811ZM795.114 552.043L795.996 556.467L715.643 556.467L716.525 552.043L795.108 552.043L795.114 552.043ZM717.207 548.505L717.979 544.081L793.665 544.081L794.436 548.505L717.212 548.505L717.207 548.505ZM800.201 578.584L801.518 585.661L710.12 585.661L711.438 578.584L800.201 578.584ZM712.12 575.045L713.275 568.852L798.374 568.852L799.529 575.045L712.125 575.045L712.12 575.045ZM684.312 719.249L688.302 698.901L823.336 698.901L827.326 719.249L684.307 719.249L684.312 719.249ZM828.009 722.787L832.686 746.674L678.947 746.674L683.624 722.787L828.003 722.787L828.009 722.787ZM693.095 673.245L696.056 658.206L815.582 658.206L818.543 673.245L693.09 673.245L693.095 673.245ZM818.738 677.669L822.139 695.362L689.499 695.362L692.901 677.669L818.738 677.669ZM697.169 654.667L699.72 641.397L811.918 641.397L814.469 654.667L697.169 654.667ZM707.563 599.816L804.08 599.816L805.781 608.663L705.862 608.663L707.563 599.816ZM705.731 596.278L610.332 596.278L614.837 588.315L707.233 588.315L705.731 596.278ZM702.912 622.818L704.87 613.087L806.779 613.087L808.737 622.818L702.917 622.818L702.912 622.818ZM808.752 626.357L810.963 637.858L700.676 637.858L702.886 626.357L808.747 626.357L808.752 626.357ZM804.406 588.315L896.802 588.316L901.306 596.278L805.907 596.278L804.406 588.315ZM893.746 578.584L981.254 578.584L987.832 585.661L897.694 585.661L893.746 578.584ZM991.234 588.316L998.736 596.278L904.235 596.278L899.731 588.316L991.234 588.316ZM908.167 608.663L808.605 608.663L806.905 599.816L903.065 599.816L908.167 608.663ZM910.524 613.087L916.394 622.818L810.936 622.818L808.978 613.087L910.524 613.087ZM917.822 626.357L924.457 637.858L814.527 637.858L812.317 626.357L917.822 626.357ZM697.111 637.858L587.181 637.858L593.817 626.357L699.321 626.357L697.111 637.858ZM595.245 622.818L601.114 613.087L702.66 613.087L700.702 622.818L595.245 622.818ZM603.471 608.663L608.574 599.816L704.734 599.816L703.033 608.663L603.471 608.663ZM607.403 596.278L512.902 596.278L520.404 588.315L611.907 588.315L607.403 596.278ZM523.806 585.661L530.384 578.584L617.892 578.584L613.944 585.661L523.806 585.661ZM529.791 575.045L444.781 575.045L452.855 568.852L535.555 568.852L529.785 575.045L529.791 575.045ZM539.56 568.852L623.399 568.852L619.94 575.045L533.791 575.045L539.56 568.852ZM620.827 578.584L709.233 578.584L707.915 585.661L616.879 585.661L620.827 578.584ZM709.443 588.315L802.201 588.315L803.702 596.278L707.941 596.278L709.443 588.315ZM802.411 578.584L890.817 578.584L894.765 585.661L803.729 585.661L802.411 578.584ZM888.239 568.852L972.078 568.852L977.847 575.045L891.699 575.045L888.239 568.852ZM976.078 568.852L1058.78 568.852L1066.85 575.045L981.842 575.045L976.073 568.852L976.078 568.852ZM1063.99 568.852L1145.45 568.852L1155.83 575.045L1072.06 575.045L1063.99 568.852ZM1080.83 585.661L991.833 585.661L985.255 578.584L1071.62 578.584L1080.84 585.661L1080.83 585.661ZM1085.6 588.316L1096.1 596.278L1002.74 596.278L995.24 588.316L1085.6 588.316L1085.6 588.316ZM1010.38 608.663L911.706 608.663L906.603 599.816L1001.87 599.816L1010.38 608.663ZM1014.11 613.087L1023.89 622.818L919.323 622.818L913.454 613.087L1014.1 613.087L1014.11 613.087ZM1026.71 626.357L1037.77 637.858L928.725 637.858L922.09 626.357L1026.71 626.357L1026.71 626.357ZM934.474 654.667L817.53 654.667L814.979 641.397L926.814 641.397L934.474 654.667ZM936.957 658.206L945.845 673.245L820.753 673.245L817.793 658.206L936.957 658.206ZM947.441 677.669L957.652 695.362L825.368 695.362L821.966 677.669L947.446 677.669L947.441 677.669ZM686.276 695.362L553.992 695.362L564.203 677.669L689.683 677.669L686.281 695.362L686.276 695.362ZM565.793 673.245L574.681 658.206L693.846 658.206L690.885 673.245L565.793 673.245ZM577.164 654.667L584.824 641.397L696.665 641.397L694.113 654.667L577.17 654.667L577.164 654.667ZM582.913 637.858L473.87 637.858L484.931 626.357L589.554 626.357L582.918 637.858L582.913 637.858ZM487.751 622.818L497.531 613.087L598.179 613.087L592.31 622.818L487.745 622.818L487.751 622.818ZM501.263 608.663L509.773 599.816L605.041 599.816L599.938 608.663L501.263 608.663ZM508.902 596.278L415.54 596.278L426.045 588.315L516.409 588.315L508.907 596.278L508.902 596.278ZM430.806 585.661L440.02 578.584L526.389 578.584L519.811 585.661L430.811 585.661L430.806 585.661ZM439.579 575.045L355.808 575.045L366.192 568.852L447.653 568.852L439.579 575.045ZM371.857 565.314L381.044 560.006L459.948 560.006L452.803 565.314L371.857 565.314ZM464.316 560.006L544.469 560.006L539.366 565.314L457.171 565.314L464.316 560.006ZM547.619 560.006L628.922 560.006L625.861 565.314L542.516 565.314L547.619 560.006ZM626.328 568.852L711.065 568.852L709.91 575.045L622.869 575.045L626.328 568.852ZM800.573 568.852L885.31 568.852L888.769 575.045L801.728 575.045L800.573 568.852ZM882.716 560.006L964.02 560.006L969.122 565.314L885.777 565.314L882.716 560.006ZM967.169 560.006L1047.32 560.006L1054.47 565.314L972.272 565.314L967.169 560.006ZM1051.69 560.006L1130.59 560.006L1139.78 565.314L1058.84 565.314L1051.69 560.006ZM1136.24 560.006L1213.85 560.006L1225.07 565.314L1145.43 565.314L1136.24 560.006ZM1232.1 568.852L1244.8 575.045L1162.31 575.045L1151.93 568.852L1232.11 568.852L1232.1 568.852ZM1173.8 585.661L1086.03 585.661L1076.82 578.584L1161.95 578.584L1173.79 585.661L1173.8 585.661ZM1179.93 588.316L1193.43 596.278L1101.31 596.278L1090.8 588.316L1179.93 588.316ZM1112.52 608.663L1014.98 608.663L1006.47 599.816L1100.61 599.816L1112.52 608.663ZM1117.62 613.087L1131.31 622.818L1027.89 622.818L1018.11 613.087L1117.62 613.087ZM1135.53 626.357L1151.02 637.858L1043.1 637.858L1032.04 626.357L1135.53 626.357ZM1054.29 654.667L938.238 654.667L930.579 641.397L1041.53 641.397L1054.29 654.667L1054.29 654.667ZM1058.15 658.206L1072.97 673.245L948.774 673.245L939.886 658.206L1058.16 658.206L1058.15 658.206ZM1075.95 677.669L1092.97 695.362L961.573 695.362L951.362 677.669L1075.95 677.669L1075.95 677.669ZM972.193 719.249L829.536 719.249L825.546 698.901L960.219 698.901L972.193 719.249ZM974.236 722.787L988.273 746.674L834.896 746.674L830.219 722.787L974.241 722.787L974.236 722.787ZM990.316 751.097L1006.9 779.407L841.107 779.407L835.579 751.097L990.316 751.097ZM838.897 779.407L672.742 779.407L678.27 751.097L833.369 751.097L838.897 779.407ZM670.532 779.407L504.733 779.407L521.317 751.097L676.054 751.097L670.526 779.407L670.532 779.407ZM523.365 746.674L537.403 722.787L681.425 722.787L676.747 746.674L523.37 746.674L523.365 746.674ZM539.445 719.249L551.42 698.901L686.092 698.901L682.102 719.249L539.445 719.249ZM550.065 695.362L418.669 695.362L435.683 677.669L560.271 677.669L550.06 695.362L550.065 695.362ZM438.67 673.245L453.485 658.206L571.757 658.206L562.869 673.245L438.676 673.245L438.67 673.245ZM457.344 654.667L470.106 641.397L581.055 641.397L573.395 654.667L457.339 654.667L457.344 654.667ZM468.547 637.858L360.627 637.858L376.114 626.357L479.608 626.357L468.547 637.858ZM380.33 622.818L394.026 613.087L493.536 613.087L483.755 622.818L380.33 622.818ZM399.119 608.663L411.03 599.816L505.169 599.816L496.659 608.663L399.119 608.663ZM410.332 596.278L318.204 596.278L331.712 588.315L420.837 588.315L410.332 596.278ZM337.838 585.661L349.682 578.584L434.812 578.584L425.598 585.661L337.833 585.661L337.838 585.661ZM349.33 575.045L266.846 575.045L279.54 568.852L359.719 568.852L349.335 575.045L349.33 575.045ZM286.564 565.314L297.793 560.006L375.395 560.006L366.208 565.314L286.564 565.314ZM305.626 556.467L315.343 552.043L389.013 552.043L381.065 556.467L305.631 556.467L305.626 556.467ZM395.486 552.043L470.437 552.043L464.253 556.467L387.532 556.467L395.481 552.043L395.486 552.043ZM475.645 552.043L551.834 552.043L547.419 556.467L469.46 556.467L475.645 552.043ZM555.835 552.043L633.164 552.043L630.513 556.467L551.414 556.467L555.829 552.043L555.835 552.043ZM713.202 560.006L712.183 565.314L627.93 565.314L630.99 560.006L713.202 560.006ZM633.442 556.467L636.093 552.043L714.32 552.043L713.438 556.467L633.447 556.467L633.442 556.467ZM714.535 560.006L797.109 560.006L798.127 565.314L713.511 565.314L714.53 560.006L714.535 560.006ZM797.319 552.043L875.545 552.043L878.196 556.467L798.206 556.467L797.324 552.043L797.319 552.043ZM880.648 560.006L883.709 565.314L799.455 565.314L798.437 560.006L880.648 560.006ZM878.475 552.043L955.804 552.043L960.219 556.467L881.12 556.467L878.469 552.043L878.475 552.043ZM959.804 552.043L1035.99 552.043L1042.18 556.467L964.219 556.467L959.804 552.043ZM1041.2 552.043L1116.15 552.043L1124.1 556.467L1047.38 556.467L1041.2 552.043L1041.2 552.043ZM1122.63 552.043L1196.3 552.043L1206.02 556.467L1130.58 556.467L1122.64 552.043L1122.63 552.043ZM1204.08 552.043L1276.43 552.043L1287.91 556.467L1213.79 556.467L1204.08 552.043ZM1297.09 560.006L1310.36 565.314L1232.04 565.314L1220.81 560.006L1297.09 560.006ZM1318.75 568.852L1333.74 575.045L1252.57 575.045L1239.87 568.852L1318.74 568.852L1318.75 568.852ZM1266.76 585.661L1180.28 585.661L1168.43 578.584L1252.28 578.584L1266.76 585.661ZM1274.24 588.316L1290.75 596.278L1199.91 596.278L1186.4 588.316L1274.24 588.316L1274.24 588.316ZM1214.63 608.663L1118.32 608.663L1106.41 599.816L1199.31 599.816L1214.63 608.663L1214.63 608.663ZM1221.1 613.087L1238.7 622.818L1136.52 622.818L1122.82 613.087L1221.1 613.087ZM1244.32 626.357L1264.23 637.858L1157.54 637.858L1142.05 626.357L1244.32 626.357ZM1174.05 654.667L1059.13 654.667L1046.37 641.397L1156.19 641.397L1174.06 654.667L1174.05 654.667ZM1179.29 658.206L1200.03 673.245L1076.97 673.245L1062.16 658.206L1179.29 658.206L1179.29 658.206ZM1204.4 677.669L1228.22 695.362L1097.96 695.362L1080.94 677.669L1204.4 677.669ZM1116.89 719.249L975.123 719.249L963.148 698.901L1096.93 698.901L1116.89 719.249ZM1120.29 722.788L1143.68 746.674L991.203 746.674L977.165 722.787L1120.29 722.788ZM1147.09 751.097L1174.73 779.407L1009.83 779.407L993.25 751.097L1147.09 751.097L1147.09 751.097ZM1029.28 817.449L847.879 817.449L841.243 782.946L1009.37 782.946L1029.28 817.449ZM846.703 817.449L664.941 817.449L671.576 782.946L840.067 782.946L846.703 817.449ZM663.759 817.449L482.359 817.449L502.271 782.946L670.4 782.946L663.765 817.449L663.759 817.449ZM501.809 779.407L336.909 779.407L364.554 751.097L518.399 751.097L501.815 779.407L501.809 779.407ZM367.956 746.674L391.349 722.787L534.473 722.787L520.436 746.674L367.951 746.674L367.956 746.674ZM394.751 719.249L414.71 698.901L548.49 698.901L536.516 719.249L394.751 719.249ZM413.682 695.362L283.414 695.362L307.237 677.669L430.696 677.669L413.682 695.362ZM311.616 673.245L332.357 658.205L449.49 658.206L434.675 673.245L311.621 673.245L311.616 673.245ZM337.592 654.667L355.462 641.397L465.281 641.397L452.519 654.667L337.597 654.667L337.592 654.667ZM354.107 637.858L247.411 637.858L267.323 626.357L369.594 626.357L354.107 637.858ZM272.935 622.818L290.543 613.087L388.819 613.087L375.122 622.818L272.935 622.818ZM297.006 608.663L312.319 599.816L405.224 599.816L393.312 608.663L297 608.663L297.006 608.663ZM311.731 596.278L220.889 596.278L237.394 588.315L325.234 588.315L311.726 596.278L311.731 596.278ZM244.886 585.661L259.36 578.584L343.209 578.584L331.365 585.661L244.886 585.661ZM259.071 575.045L177.894 575.045L192.892 568.852L271.759 568.852L259.066 575.045L259.071 575.045ZM201.276 565.314L214.548 560.006L290.827 560.006L279.597 565.314L201.276 565.314ZM223.724 556.467L235.205 552.043L307.563 552.043L297.845 556.467L223.719 556.467L223.724 556.467ZM234.959 548.505L165.289 548.505L176.838 544.081L244.97 544.081L234.959 548.505ZM186.367 540.542L196.578 537.004L263.197 537.004L254.346 540.542L186.362 540.542L186.367 540.542ZM323.522 544.081L315.049 548.505L244.051 548.505L254.062 544.081L323.517 544.081L323.522 544.081ZM262.231 540.543L271.082 537.004L339.051 537.004L331.565 540.543L262.236 540.543L262.231 540.543ZM402.069 544.081L395.139 548.505L322.834 548.505L331.307 544.081L402.074 544.081L402.069 544.081ZM338.106 540.543L345.592 537.004L414.894 537.004L408.768 540.543L338.101 540.543L338.106 540.543ZM480.595 544.081L475.204 548.505L401.612 548.505L408.542 544.081L480.595 544.081ZM413.986 540.543L420.113 537.004L490.722 537.004L485.955 540.543L413.981 540.543L413.986 540.543ZM559.09 544.081L555.241 548.505L480.411 548.505L485.803 544.081L559.09 544.081ZM489.882 540.543L494.649 537.004L566.518 537.004L563.116 540.543L489.882 540.543ZM637.516 544.081L635.206 548.505L559.237 548.505L563.085 544.081L637.516 544.081ZM565.809 540.543L569.211 537.004L642.241 537.004L640.198 540.543L565.804 540.543L565.809 540.543ZM715.769 544.081L714.997 548.505L638.135 548.505L640.445 544.081L715.769 544.081ZM641.81 540.543L643.852 537.004L717.795 537.004L717.113 540.543L641.81 540.543ZM793.843 537.004L867.786 537.004L869.828 540.543L794.526 540.543L793.843 537.004ZM871.193 544.081L873.503 548.505L796.641 548.505L795.87 544.081L871.193 544.081ZM869.393 537.004L942.422 537.004L945.824 540.543L871.429 540.543L869.387 537.004L869.393 537.004ZM948.548 544.081L952.397 548.505L876.427 548.505L874.117 544.081L948.543 544.081L948.548 544.081ZM945.12 537.004L1016.99 537.004L1021.76 540.543L948.522 540.543L945.12 537.004ZM1025.84 544.081L1031.23 548.505L956.402 548.505L952.554 544.081L1025.84 544.081ZM1020.92 537.004L1091.53 537.004L1097.65 540.543L1025.68 540.543L1020.91 537.004L1020.92 537.004ZM1103.1 544.081L1110.03 548.505L1036.43 548.505L1031.04 544.081L1103.1 544.081ZM1096.74 537.004L1166.05 537.004L1173.53 540.543L1102.87 540.543L1096.74 537.004L1096.74 537.004ZM1180.34 544.081L1188.81 548.505L1116.51 548.505L1109.58 544.081L1180.35 544.081L1180.34 544.081ZM1172.59 537.004L1240.56 537.004L1249.41 540.543L1180.08 540.543L1172.59 537.004L1172.59 537.004ZM1257.57 544.081L1267.58 548.505L1196.58 548.505L1188.11 544.081L1257.57 544.081L1257.57 544.081ZM1248.44 537.004L1315.06 537.004L1325.27 540.543L1257.29 540.543L1248.44 537.004L1248.44 537.004ZM1334.8 544.081L1346.35 548.505L1276.67 548.505L1266.66 544.081L1334.79 544.081L1334.8 544.081ZM1324.3 537.004L1389.57 537.004L1401.14 540.543L1334.51 540.543L1324.3 537.004ZM1412.02 544.081L1425.12 548.505L1356.78 548.505L1345.23 544.081L1412.02 544.081ZM1369.81 556.467L1297.01 556.467L1285.53 552.043L1356.57 552.043L1369.82 556.467L1369.81 556.467ZM1380.33 560.006L1395.64 565.314L1318.66 565.314L1305.39 560.006L1380.33 560.006ZM1405.39 568.852L1422.7 575.045L1342.85 575.045L1327.85 568.852L1405.39 568.852L1405.39 568.852ZM1359.7 585.661L1274.53 585.661L1260.06 578.584L1342.6 578.584L1359.7 585.661ZM1368.55 588.316L1388.06 596.278L1298.53 596.278L1282.02 588.316L1368.56 588.316L1368.55 588.316ZM1316.73 608.663L1221.7 608.663L1206.39 599.816L1298.01 599.816L1316.74 608.663L1316.73 608.663ZM1324.56 613.087L1346.08 622.818L1245.18 622.818L1227.57 613.087L1324.56 613.087ZM1353.09 626.357L1377.42 637.858L1272 637.858L1252.08 626.357L1353.09 626.357ZM1293.77 654.667L1180.08 654.667L1162.21 641.397L1270.8 641.397L1293.77 654.667ZM1300.38 658.206L1327.05 673.245L1205.23 673.245L1184.48 658.206L1300.38 658.206L1300.38 658.206ZM1332.82 677.669L1363.45 695.362L1234.41 695.362L1210.59 677.669L1332.82 677.669ZM1261.51 719.249L1120.88 719.249L1100.92 698.901L1233.56 698.901L1261.51 719.249ZM1266.27 722.788L1299.03 746.674L1147.69 746.674L1124.29 722.788L1266.28 722.788L1266.27 722.788ZM1303.79 751.097L1342.49 779.407L1178.73 779.407L1151.08 751.097L1303.79 751.097ZM1211.7 817.449L1031.21 817.449L1011.29 782.946L1178.52 782.946L1211.7 817.449ZM1214.77 820.987L1254.76 862.568L1057.32 862.568L1033.33 820.987L1214.77 820.987ZM1055.05 862.568L856.709 862.568L848.708 820.987L1031.05 820.987L1055.05 862.568L1055.05 862.568ZM855.171 862.568L656.467 862.568L664.463 820.987L847.17 820.987L855.171 862.568ZM654.934 862.568L456.593 862.568L480.59 820.987L662.935 820.987L654.94 862.568L654.934 862.568ZM454.315 862.568L256.871 862.568L296.859 820.987L478.306 820.987L454.315 862.568ZM299.935 817.449L333.119 782.946L500.345 782.946L480.432 817.449L299.935 817.449ZM332.909 779.407L169.148 779.407L207.849 751.097L360.554 751.097L332.909 779.407ZM212.61 746.674L245.364 722.787L387.349 722.787L363.956 746.674L212.61 746.674ZM250.13 719.249L278.075 698.901L410.715 698.901L390.756 719.249L250.13 719.249ZM277.224 695.362L148.185 695.362L178.818 677.669L301.048 677.669L277.224 695.362ZM184.592 673.245L211.256 658.205L327.15 658.205L306.408 673.245L184.587 673.245L184.592 673.245ZM217.865 654.667L240.838 641.396L349.43 641.397L331.56 654.667L217.865 654.667ZM239.641 637.858L134.216 637.858L158.548 626.357L259.554 626.357L239.641 637.858ZM165.557 622.818L187.075 613.087L284.065 613.087L266.457 622.818L165.557 622.818ZM194.913 608.663L213.634 599.816L305.263 599.816L289.95 608.663L194.919 608.663L194.913 608.663ZM213.114 596.278L123.585 596.278L143.093 588.315L229.625 588.315L213.12 596.278L213.114 596.278ZM151.939 585.661L169.043 578.584L251.579 578.584L237.106 585.661L151.939 585.661ZM168.796 575.045L88.9469 575.045L106.255 568.852L183.8 568.852L168.801 575.045L168.796 575.045ZM115.994 565.314L131.307 560.006L206.248 560.006L192.976 565.314L115.994 565.314ZM141.828 556.467L155.078 552.043L226.113 552.043L214.631 556.467L141.833 556.467L141.828 556.467ZM154.863 548.505L86.5216 548.505L99.6145 544.081L166.412 544.081L154.863 548.505ZM110.502 540.542L122.073 537.004L187.338 537.004L177.127 540.542L110.502 540.542ZM205.528 530.811L196.861 533.465L134.121 533.465L143.943 530.811L205.528 530.811ZM278.873 530.811L271.366 533.465L207.292 533.465L215.954 530.811L278.873 530.811ZM352.207 530.811L345.855 533.465L280.458 533.465L287.965 530.811L352.207 530.811ZM425.535 530.811L420.338 533.465L353.629 533.465L359.982 530.811L425.53 530.811L425.535 530.811ZM498.849 530.811L494.806 533.465L426.816 533.465L432.014 530.811L498.849 530.811ZM572.13 530.811L569.243 533.465L500.014 533.465L504.056 530.811L572.13 530.811ZM645.338 530.811L643.605 533.465L573.238 533.465L576.125 530.811L645.338 530.811ZM718.378 530.811L717.8 533.465L646.535 533.465L648.267 530.811L718.378 530.811ZM791.633 533.465L720.011 533.465L720.588 530.811L791.056 530.811L791.633 533.465ZM793.654 540.543L717.984 540.543L718.667 537.004L792.977 537.004L793.659 540.543L793.654 540.543ZM865.103 533.465L793.838 533.465L793.26 530.811L863.371 530.811L865.103 533.465ZM938.401 533.465L868.033 533.465L866.3 530.811L935.513 530.811L938.401 533.465ZM1011.63 533.465L942.401 533.465L939.514 530.811L1007.59 530.811L1011.63 533.465ZM1084.83 533.465L1016.84 533.465L1012.8 530.811L1079.63 530.811L1084.83 533.465ZM1158.01 533.465L1091.3 533.465L1086.1 530.811L1151.66 530.811L1158.01 533.465ZM1231.18 533.465L1165.78 533.465L1159.43 530.811L1223.67 530.811L1231.18 533.465ZM1304.35 533.465L1240.28 533.465L1232.77 530.811L1295.69 530.811L1304.35 533.465ZM1377.52 533.465L1314.78 533.465L1306.12 530.811L1367.7 530.811L1377.52 533.465L1377.52 533.465ZM1450.68 533.465L1389.28 533.465L1379.45 530.811L1439.7 530.811L1450.68 533.465ZM1477 540.543L1411.74 540.543L1400.16 537.004L1464.07 537.004L1477.01 540.543L1477 540.543ZM1436.88 548.505L1423.78 544.081L1489.25 544.081L1503.88 548.505L1436.88 548.505ZM1451.7 556.467L1380.23 556.467L1366.98 552.043L1436.68 552.043L1451.7 556.467L1451.7 556.467ZM1480.92 565.314L1405.28 565.314L1389.97 560.006L1463.57 560.006L1480.92 565.314ZM1433.12 575.045L1415.81 568.852L1492.02 568.853L1511.63 575.045L1433.11 575.045L1433.12 575.045ZM1452.64 585.661L1368.8 585.661L1351.69 578.584L1432.91 578.584L1452.65 585.661L1452.64 585.661ZM1397.15 596.278L1377.64 588.316L1462.85 588.316L1485.36 596.278L1397.16 596.278L1397.15 596.278ZM1418.82 608.663L1325.09 608.663L1306.37 599.816L1396.69 599.816L1418.82 608.663ZM1453.45 622.818L1353.86 622.818L1332.34 613.087L1428.01 613.087L1453.45 622.818ZM1385.98 637.858L1361.35 626.357L1462.3 626.357L1491.42 637.858L1385.98 637.858ZM1413.48 654.667L1301.06 654.667L1278.09 641.397L1385.41 641.397L1413.48 654.667ZM1454.06 673.245L1333.52 673.245L1306.86 658.206L1421.47 658.206L1454.06 673.245ZM1370.9 695.362L1340.26 677.669L1461.22 677.669L1498.66 695.362L1370.89 695.362L1370.9 695.362ZM1406.1 719.249L1266.72 719.249L1238.77 698.901L1370.17 698.901L1406.1 719.249ZM1454.34 746.674L1304.23 746.674L1271.48 722.788L1412.23 722.788L1454.34 746.674L1454.34 746.674ZM1347.7 779.407L1309 751.097L1460.46 751.097L1510.23 779.407L1347.7 779.407L1347.7 779.407ZM1394.06 817.449L1214.71 817.449L1181.52 782.946L1347.6 782.946L1394.06 817.449ZM1258.11 862.568L1218.12 820.987L1398.43 820.987L1454.41 862.568L1258.11 862.568ZM1059.66 866.106L1257.79 866.106L1306.64 916.533L1088.97 916.533L1059.66 866.106L1059.66 866.106ZM857.717 866.106L1056.74 866.106L1086.04 916.533L867.487 916.533L857.717 866.106ZM646.362 916.533L656.131 866.106L855.512 866.106L865.282 916.533L646.362 916.533ZM425.593 916.533L454.903 866.106L653.921 866.106L644.151 916.533L425.593 916.533ZM253.853 866.106L451.973 866.106L422.659 916.533L204.993 916.533L253.847 866.106L253.853 866.106ZM113.211 820.987L293.514 820.987L253.527 862.568L57.2279 862.568L113.211 820.987ZM164.034 782.946L330.116 782.946L296.932 817.449L117.579 817.449L164.034 782.946ZM51.1749 751.097L202.641 751.097L163.94 779.407L1.41761 779.407L51.1749 751.097ZM99.4096 722.787L240.156 722.787L207.403 746.674L57.2961 746.674L99.4096 722.787ZM141.471 698.901L272.872 698.901L244.928 719.249L105.541 719.249L141.471 698.901ZM50.419 677.669L171.373 677.669L140.741 695.362L12.9776 695.362L50.4137 677.669L50.419 677.669ZM90.1754 658.205L204.783 658.205L178.119 673.245L57.5848 673.245L90.1754 658.205ZM126.236 641.396L233.552 641.396L210.579 654.667L98.1603 654.667L126.236 641.396ZM49.3427 626.357L150.296 626.357L125.658 637.858L20.2276 637.858L49.3427 626.357ZM83.6237 613.087L179.301 613.087L157.782 622.818L58.1885 622.818L83.6237 613.087ZM114.949 599.816L205.276 599.816L186.556 608.663L92.8266 608.663L114.949 599.816ZM48.7915 588.315L133.995 588.315L114.487 596.278L26.2806 596.278L48.7915 588.315ZM78.7362 578.584L159.95 578.584L142.846 585.661L59.0022 585.661L78.7414 578.584L78.7362 578.584ZM19.6185 568.852L95.8294 568.852L78.521 575.045L0.000219107 575.045L19.6133 568.852L19.6185 568.852ZM48.0723 560.006L121.669 560.006L106.355 565.314L30.7166 565.314L48.0723 560.006ZM74.9511 552.043L144.652 552.043L131.402 556.467L59.9315 556.467L74.9458 552.043L74.9511 552.043ZM87.8549 544.081L74.7621 548.505L7.75939 548.505L22.3904 544.081L87.8549 544.081ZM111.479 537.004L99.9085 540.542L34.6434 540.542L47.5788 537.004L111.484 537.004L111.479 537.004Z" fill="url(#paint3_linear_2503_2686)"/>
</g>
</g>
<defs>
<filter id="filter0_f_2503_2686" x="490.656" y="209.034" width="1064.76" height="1068.25" filterUnits="userSpaceOnUse" color-interpolation-filters="sRGB">
<feFlood flood-opacity="0" result="BackgroundImageFix"/>
<feBlend mode="normal" in="SourceGraphic" in2="BackgroundImageFix" result="shape"/>
<feGaussianBlur stdDeviation="177" result="effect1_foregroundBlur_2503_2686"/>
</filter>
<filter id="filter1_f_2503_2686" x="-285.794" y="-339.611" width="1219.34" height="1033.43" filterUnits="userSpaceOnUse" color-interpolation-filters="sRGB">
<feFlood flood-opacity="0" result="BackgroundImageFix"/>
<feBlend mode="normal" in="SourceGraphic" in2="BackgroundImageFix" result="shape"/>
<feGaussianBlur stdDeviation="177" result="effect1_foregroundBlur_2503_2686"/>
</filter>
<filter id="filter2_f_2503_2686" x="-214.811" y="-464.353" width="1941.62" height="1837.1" filterUnits="userSpaceOnUse" color-interpolation-filters="sRGB">
<feFlood flood-opacity="0" result="BackgroundImageFix"/>
<feBlend mode="normal" in="SourceGraphic" in2="BackgroundImageFix" result="shape"/>
<feGaussianBlur stdDeviation="317" result="effect1_foregroundBlur_2503_2686"/>
</filter>
<filter id="filter3_f_2503_2686" x="-157.247" y="89.4812" width="1784.21" height="815.519" filterUnits="userSpaceOnUse" color-interpolation-filters="sRGB">
<feFlood flood-opacity="0" result="BackgroundImageFix"/>
<feBlend mode="normal" in="SourceGraphic" in2="BackgroundImageFix" result="shape"/>
<feGaussianBlur stdDeviation="67" result="effect1_foregroundBlur_2503_2686"/>
</filter>
<filter id="filter4_f_2503_2686" x="285.189" y="-68.9754" width="1025.36" height="778.349" filterUnits="userSpaceOnUse" color-interpolation-filters="sRGB">
<feFlood flood-opacity="0" result="BackgroundImageFix"/>
<feBlend mode="normal" in="SourceGraphic" in2="BackgroundImageFix" result="shape"/>
<feGaussianBlur stdDeviation="67" result="effect1_foregroundBlur_2503_2686"/>
</filter>
<radialGradient id="paint0_radial_2503_2686" cx="0" cy="0" r="1" gradientUnits="userSpaceOnUse" gradientTransform="translate(765.435 965.42) scale(1109.37 886.959)">
<stop stop-color="#0053B8"/>
<stop offset="0.345" stop-color="#00327B"/>
<stop offset="0.64" stop-color="#00103C"/>
<stop offset="1" stop-color="#000324"/>
</radialGradient>
<radialGradient id="paint1_radial_2503_2686" cx="0" cy="0" r="1" gradientUnits="userSpaceOnUse" gradientTransform="translate(756 491) rotate(90) scale(491 756)">
<stop stop-opacity="0"/>
<stop offset="1"/>
</radialGradient>
<linearGradient id="paint2_linear_2503_2686" x1="733.331" y1="-2.87522" x2="733.331" y2="503.164" gradientUnits="userSpaceOnUse">
<stop stop-color="#4AABFF"/>
<stop offset="0.888112" stop-color="#4AABFF" stop-opacity="0"/>
</linearGradient>
<linearGradient id="paint3_linear_2503_2686" x1="778.668" y1="984.875" x2="778.668" y2="478.836" gradientUnits="userSpaceOnUse">
<stop stop-color="#4AABFF"/>
<stop offset="0.888112" stop-color="#4AABFF" stop-opacity="0"/>
</linearGradient>
<clipPath id="clip0_2503_2686">
<rect width="1512" height="982" fill="white"/>
</clipPath>
<clipPath id="clip1_2503_2686">
<rect width="1512" height="982" fill="white"/>
</clipPath>
</defs>
</svg>
