<svg width="1512" height="982" viewBox="0 0 1512 982" fill="none" xmlns="http://www.w3.org/2000/svg">
<g clip-path="url(#clip0_2503_2746)">
<g opacity="0.5">
<path d="M1511.88 451.189H1453.16L1464.14 448.535H1511.96V444.996H1476.25L1489.19 441.457H1511.96V437.919H1502.52L1511.96 435.335V429.956H1448.62L1463.64 425.533H1511.96V421.994H1474.83L1492.18 416.686H1511.96V413.147H1503.96L1511.96 410.697V403.416H1443.51L1463.25 396.338H1511.97V393.684H1472.66L1495.64 385.722H1511.97V382.184H1506.21L1511.97 380.193V376.601L1495.85 382.184H1406.84L1428.96 373.337H1511.97V368.913H1437.3L1462.73 359.182H1511.97V355.643H1472.08L1500.83 344.142H1511.97V340.603H1509.56L1511.97 339.639V336.03L1500.53 340.603H1394.52L1422.59 327.333H1511.96V323.794H1429.42L1462.01 308.755H1511.96V304.331H1469.83L1507.26 286.638H1511.96V280.772L1506.94 283.099H1376.82L1412.75 262.751H1511.96V259.212H1418.88L1460.99 235.326L1511.96 235.326V230.903L1467.3 230.903L1511.96 205.273V199.054L1351.72 199.054L1398.17 164.551L1511.96 164.551V161.013L1403.22 161.013L1459.2 119.432H1511.96V115.894H1464.15L1511.96 80.6478V76.8083L1458.94 115.894L1261.96 115.894L1310.81 65.4666L1511.96 65.4666V61.9279L1314.21 61.9279L1373.5 0L1369.5 0L1310.21 61.9279L1091.19 61.9279L1126.76 0L1123.83 0L1088.26 61.9279L868.337 61.9279L880.196 0L877.991 0L866.132 61.9279L645.852 61.9279L633.993 0L631.788 0L643.647 61.9279L423.724 61.9279L388.157 0L385.227 0L420.8 61.9279L201.774 61.9279L142.489 0L138.488 0L197.774 61.9279L0.03125 61.9279L0.03125 65.4666L201.176 65.4666L250.03 115.894L53.0486 115.894L0.03125 76.8083L0.03125 80.6478L47.8408 115.894H0.03125L0.03125 119.432H52.7861L108.77 161.013H0.03125L0.03125 164.551H113.82L160.275 199.054L0.03125 199.054L0.03125 205.344L44.2763 230.903H0.03125L0.03125 235.326H51.0012L93.1148 259.212H0.03125L0.03125 262.751H99.2413L135.171 283.099H5.05527L0.03125 280.772L0.03125 286.638H4.72979L42.1659 304.331H0.03125L0.03125 308.755H49.9827L82.5733 323.794H0.03125L0.03125 327.333H89.4032L117.479 340.603H11.4705L0.03125 336.03L0.03125 339.639L2.44089 340.603H0.03125L0.03125 344.142H11.166L39.9242 355.643H0.03125L0.03125 359.182H49.274L74.7091 368.913H0.03125L0.03125 373.337H83.0353L105.158 382.184H16.148L0.03125 376.601L0.03125 380.193L5.78499 382.184H0.03125L0.03125 385.722H16.3633L39.3362 393.684H0.03125L0.03125 396.338H48.7543L68.4934 403.416H0.03125L0.03125 410.653L8.19988 413.147H0.03125L0.03125 416.686H19.8124L37.1681 421.994H0.03125L0.03125 425.533H48.3553L63.3696 429.956H0.03125L0.03125 435.194L9.9953 437.919H0.03125L0.03125 441.457H22.81L35.7454 444.996H0.03125L0.03125 448.535H48.2188L59.1961 451.189H0.109996L0.03125 451.171L0.03125 454.728L1511.96 454.71V451.171L1511.88 451.189ZM1379.82 451.189L1389.64 448.535H1451.04L1440.06 451.189H1379.82ZM716.886 429.956L716.004 425.533H796.357L795.475 429.956H716.892H716.886ZM794.793 433.495L794.021 437.919H718.335L717.564 433.495H794.788H794.793ZM711.799 403.416L710.482 396.338H801.88L800.562 403.416H711.799ZM799.88 406.955L798.725 413.147H713.626L712.471 406.955H799.875H799.88ZM827.688 262.751L823.698 283.099H688.664L684.674 262.751L827.693 262.751H827.688ZM683.991 259.212L679.314 235.326L833.053 235.326L828.376 259.212L683.997 259.212H683.991ZM818.905 308.755L815.944 323.794H696.418L693.457 308.755H818.91H818.905ZM693.262 304.331L689.861 286.638H822.501L819.099 304.331H693.262ZM814.831 327.333L812.28 340.603H700.082L697.531 327.333H814.831ZM804.437 382.184H707.92L706.219 373.337H806.138L804.437 382.184ZM806.269 385.722H901.668L897.163 393.684H804.767L806.269 385.722ZM809.088 359.182L807.13 368.913H705.221L703.263 359.182H809.083H809.088ZM703.248 355.643L701.037 344.142H811.324L809.114 355.643H703.253H703.248ZM707.594 393.684L615.199 393.684L610.694 385.722L706.093 385.722L707.594 393.684ZM618.254 403.416H530.746L524.168 396.338H614.306L618.254 403.416ZM520.766 393.684L513.264 385.722H607.765L612.269 393.684H520.766ZM603.833 373.337L703.395 373.337L705.095 382.184L608.936 382.184L603.833 373.337ZM601.476 368.913L595.606 359.182L701.064 359.182L703.022 368.913L601.476 368.913ZM594.178 355.643L587.543 344.142L697.473 344.142L699.683 355.643L594.178 355.643ZM814.889 344.142H924.819L918.183 355.643H812.679L814.889 344.142ZM916.755 359.182L910.886 368.913H809.34L811.298 359.182H916.755ZM908.529 373.337L903.426 382.184H807.266L808.967 373.337H908.529ZM904.597 385.722H999.098L991.596 393.684H900.093L904.597 385.722ZM988.194 396.338L981.616 403.416H894.108L898.056 396.338H988.194ZM982.209 406.955H1067.22L1059.14 413.147H976.445L982.215 406.955H982.209ZM972.44 413.147H888.601L892.061 406.955H978.209L972.44 413.147ZM891.173 403.416H802.767L804.085 396.338H895.121L891.173 403.416ZM802.557 393.684H709.799L708.298 385.722H804.059L802.557 393.684ZM709.589 403.416L621.183 403.416L617.235 396.338L708.272 396.338L709.589 403.416ZM623.761 413.147H539.922L534.153 406.955H620.301L623.761 413.147ZM535.922 413.147H453.222L445.148 406.955H530.158L535.927 413.147H535.922ZM448.015 413.147H366.554L356.17 406.955H439.94L448.015 413.147ZM431.168 396.338H520.167L526.745 403.416H440.376L431.163 396.338H431.168ZM426.401 393.684L415.896 385.722H509.258L516.76 393.684H426.396H426.401ZM501.62 373.337H600.294L605.397 382.184H510.13L501.62 373.337ZM497.893 368.913L488.112 359.182H592.677L598.546 368.913H497.898H497.893ZM485.293 355.643L474.232 344.142H583.275L589.91 355.643H485.288H485.293ZM577.526 327.333L694.47 327.333L697.021 340.603L585.186 340.603L577.526 327.333ZM575.043 323.794L566.155 308.755L691.247 308.755L694.207 323.794L575.043 323.794ZM564.559 304.331L554.348 286.638H686.632L690.034 304.331L564.554 304.331H564.559ZM825.724 286.638H958.008L947.797 304.331H822.317L825.719 286.638H825.724ZM946.207 308.755L937.319 323.794H818.154L821.115 308.755H946.207ZM934.836 327.333L927.176 340.603H815.335L817.887 327.333H934.83H934.836ZM929.087 344.142H1038.13L1027.07 355.643H922.446L929.082 344.142H929.087ZM1024.25 359.182L1014.47 368.913H913.821L919.69 359.182H1024.25H1024.25ZM1010.74 373.337L1002.23 382.184H906.959L912.062 373.337H1010.74ZM1003.1 385.722H1096.46L1085.96 393.684H995.591L1003.09 385.722H1003.1ZM1081.19 396.338L1071.98 403.416H985.611L992.189 396.338H1081.19H1081.19ZM1072.42 406.955L1156.19 406.955L1145.81 413.147L1064.35 413.147L1072.42 406.955ZM1140.14 416.686L1130.96 421.994H1052.05L1059.2 416.686H1140.14ZM1047.68 421.994H967.531L972.634 416.686H1054.83L1047.68 421.994ZM964.381 421.994H883.078L886.139 416.686H969.484L964.381 421.994ZM885.672 413.147H800.935L802.09 406.955H889.131L885.672 413.147ZM711.427 413.147L626.69 413.147L623.231 406.955L710.272 406.955L711.427 413.147ZM629.284 421.994H547.981L542.878 416.686H626.223L629.284 421.994ZM544.831 421.994H464.677L457.532 416.686H539.728L544.831 421.994ZM460.309 421.994H381.406L372.218 416.686H453.165L460.309 421.994ZM375.757 421.994H298.155L286.926 416.686H366.57L375.757 421.994ZM279.896 413.147L267.202 406.955H349.686L360.071 413.147H279.891H279.896ZM338.2 396.338H425.966L435.179 403.416H350.049L338.205 396.338H338.2ZM332.074 393.684L318.566 385.722H410.694L421.199 393.684H332.074ZM399.48 373.337H497.021L505.531 382.184H411.392L399.48 373.337ZM394.383 368.913L380.686 359.182H484.112L493.892 368.913H394.383ZM376.471 355.643L360.984 344.142H468.903L479.965 355.643H376.471ZM457.706 327.333H573.762L581.421 340.603H470.473L457.711 327.333H457.706ZM453.847 323.794L439.032 308.755H563.226L572.114 323.794H453.842H453.847ZM436.045 304.331L419.031 286.638H550.427L560.638 304.331H436.05H436.045ZM539.807 262.751H682.464L686.454 283.099H551.781L539.807 262.751ZM537.765 259.212L523.727 235.326L677.104 235.326L681.781 259.212H537.759H537.765ZM521.684 230.903L505.095 202.593L670.893 202.593L676.421 230.903L521.684 230.903ZM673.103 202.593L839.258 202.593L833.73 230.903L678.631 230.903L673.103 202.593ZM841.469 202.593H1007.27L990.683 230.903H835.946L841.474 202.593H841.469ZM988.635 235.326L974.597 259.212H830.575L835.253 235.326H988.63H988.635ZM972.555 262.751L960.58 283.099H825.908L829.898 262.751H972.555ZM961.935 286.638H1093.33L1076.32 304.331H951.729L961.94 286.638H961.935ZM1073.33 308.755L1058.51 323.794H940.243L949.131 308.755H1073.32H1073.33ZM1054.66 327.333L1041.89 340.603H930.945L938.605 327.333H1054.66H1054.66ZM1043.45 344.142L1151.37 344.142L1135.89 355.643H1032.39L1043.45 344.142ZM1131.67 359.182L1117.97 368.913H1018.46L1028.24 359.182H1131.67ZM1112.88 373.337L1100.97 382.184H1006.83L1015.34 373.337H1112.88ZM1101.67 385.722L1193.8 385.722L1180.29 393.684L1091.16 393.684L1101.67 385.722ZM1174.16 396.338L1162.32 403.416L1077.19 403.416L1086.4 396.338L1174.17 396.338H1174.16ZM1162.67 406.955H1245.15L1232.46 413.147H1152.28L1162.66 406.955H1162.67ZM1225.44 416.686L1214.21 421.994L1136.6 421.994L1145.79 416.686H1225.44ZM1206.37 425.533L1196.66 429.956L1122.99 429.956L1130.94 425.533L1206.37 425.533H1206.37ZM1116.51 429.956H1041.56L1047.75 425.533H1124.47L1116.52 429.956H1116.51ZM1036.36 429.956H960.166L964.581 425.533H1042.54L1036.36 429.956ZM956.165 429.956H878.836L881.487 425.533H960.586L956.171 429.956H956.165ZM798.798 421.994L799.817 416.686H884.07L881.01 421.994H798.798ZM878.558 425.533L875.907 429.956H797.68L798.562 425.533H878.553H878.558ZM797.465 421.994H714.891L713.873 416.686H798.489L797.47 421.994H797.465ZM714.682 429.956L636.455 429.956L633.804 425.533L713.794 425.533L714.676 429.956H714.682ZM631.352 421.994L628.291 416.686L712.545 416.686L713.563 421.994L631.352 421.994ZM633.525 429.956H556.196L551.781 425.533H630.88L633.531 429.956H633.525ZM552.196 429.956H476.006L469.822 425.533H547.781L552.196 429.956ZM470.799 429.956H395.848L387.9 425.533H464.62L470.804 429.956H470.799ZM389.369 429.956H315.7L305.982 425.533H381.416L389.364 429.956H389.369ZM307.925 429.956H235.567L224.086 425.533L298.207 425.533L307.925 429.956ZM214.909 421.994L201.638 416.686L279.959 416.686L291.188 421.994L214.909 421.994ZM193.254 413.147L178.255 406.955L259.433 406.955L272.126 413.147L193.259 413.147H193.254ZM245.242 396.338H331.722L343.565 403.416H259.716L245.242 396.338ZM237.756 393.684L221.251 385.722L312.093 385.722L325.601 393.684H237.762H237.756ZM297.367 373.337H393.679L405.591 382.184H312.686L297.373 373.337H297.367ZM290.905 368.913L273.297 359.182H375.484L389.18 368.913H290.905ZM267.68 355.643L247.768 344.142H354.464L369.951 355.643H267.68ZM337.948 327.333H452.871L465.633 340.603H355.813L337.943 327.333H337.948ZM332.714 323.794L311.972 308.755H435.027L449.841 323.794H332.709H332.714ZM307.599 304.331L283.776 286.638H414.043L431.058 304.331H307.599ZM395.113 262.751H536.877L548.852 283.099H415.072L395.113 262.751ZM391.711 259.212L368.318 235.326H520.797L534.835 259.212H391.711ZM364.911 230.903L337.266 202.593L502.166 202.593L518.75 230.903H364.906H364.911ZM482.721 164.551L664.121 164.551L670.757 199.054L502.633 199.054L482.721 164.551ZM665.297 164.551L847.06 164.551L840.424 199.054L671.933 199.054L665.297 164.551ZM848.241 164.551H1029.64L1009.73 199.054H841.6L848.235 164.551H848.241ZM1010.19 202.593L1175.09 202.593L1147.45 230.903L993.601 230.903L1010.19 202.593H1010.19ZM1144.04 235.326L1120.65 259.212H977.527L991.564 235.326L1144.05 235.326H1144.04ZM1117.25 262.751L1097.29 283.099H963.51L975.484 262.751H1117.25ZM1098.32 286.638L1228.59 286.638L1204.76 304.331L1081.3 304.331L1098.32 286.638ZM1200.38 308.755L1179.64 323.794L1062.51 323.794L1077.32 308.755L1200.38 308.755H1200.38ZM1174.41 327.333L1156.54 340.603L1046.72 340.603L1059.48 327.333L1174.4 327.333H1174.41ZM1157.89 344.142H1264.59L1244.68 355.643L1142.41 355.643L1157.89 344.142ZM1239.06 359.182L1221.46 368.913L1123.18 368.913L1136.88 359.182L1239.06 359.182ZM1214.99 373.337L1199.68 382.184L1106.78 382.184L1118.69 373.337L1215 373.337H1214.99ZM1200.27 385.722H1291.11L1274.61 393.684H1186.77L1200.27 385.722H1200.27ZM1267.11 396.338L1252.64 403.416H1168.79L1180.63 396.338H1267.11ZM1252.93 406.955H1334.11L1319.11 413.147H1240.24L1252.93 406.955H1252.93ZM1310.72 416.686L1297.45 421.994H1221.17L1232.4 416.686H1310.72ZM1288.28 425.533L1276.79 429.956H1204.44L1214.15 425.533H1288.28H1288.28ZM1277.04 433.495H1346.71L1335.16 437.919H1267.03L1277.04 433.495ZM1325.63 441.457L1315.42 444.996H1248.8L1257.65 441.457H1325.64H1325.63ZM1188.48 437.919L1196.95 433.495H1267.95L1257.94 437.919H1188.48H1188.48ZM1249.77 441.457L1240.92 444.996H1172.95L1180.44 441.457H1249.76H1249.77ZM1109.93 437.919L1116.86 433.495L1189.17 433.495L1180.69 437.919L1109.93 437.919H1109.93ZM1173.89 441.457L1166.41 444.996L1097.11 444.996L1103.23 441.457L1173.9 441.457H1173.89ZM1031.4 437.919L1036.8 433.495H1110.39L1103.46 437.919H1031.4ZM1098.01 441.457L1091.89 444.996H1021.28L1026.04 441.457H1098.02H1098.01ZM952.91 437.919L956.759 433.495H1031.59L1026.2 437.919H952.91ZM1022.12 441.457L1017.35 444.996H945.482L948.884 441.457H1022.12ZM874.484 437.919L876.794 433.495H952.763L948.915 437.919H874.484ZM946.191 441.457L942.789 444.996H869.759L871.802 441.457H946.196H946.191ZM796.231 437.919L797.003 433.495H873.865L871.555 437.919H796.231ZM870.19 441.457L868.148 444.996H794.205L794.887 441.457H870.19ZM718.157 444.996L644.214 444.996L642.172 441.457L717.474 441.457L718.157 444.996ZM640.807 437.919L638.497 433.495L715.359 433.495L716.13 437.919L640.807 437.919ZM642.608 444.996H569.578L566.176 441.457H640.571L642.613 444.996H642.608ZM563.452 437.919L559.604 433.495H635.573L637.883 437.919H563.457H563.452ZM566.88 444.996H495.01L490.244 441.457H563.478L566.88 444.996ZM486.159 437.919L480.768 433.495H555.598L559.446 437.919H486.159ZM491.084 444.996H420.474L414.348 441.457H486.322L491.089 444.996H491.084ZM408.904 437.919L401.974 433.495H475.565L480.957 437.919H408.904ZM415.256 444.996H345.954L338.468 441.457H409.135L415.261 444.996H415.256ZM331.659 437.919L323.186 433.495H395.491L402.42 437.919H331.654H331.659ZM339.413 444.996H271.444L262.593 441.457H331.921L339.407 444.996H339.413ZM254.43 437.919L244.418 433.495H315.416L323.889 437.919H254.435H254.43ZM263.559 444.996L196.939 444.996L186.729 441.457L254.713 441.457L263.564 444.996H263.559ZM177.2 437.919L165.651 433.495L235.326 433.495L245.337 437.919L177.206 437.919H177.2ZM187.7 444.996H122.435L110.864 441.457H177.489L187.7 444.996ZM99.9762 437.919L86.8833 433.495H155.225L166.774 437.919H99.9762ZM142.19 425.533H214.988L226.469 429.956H155.435L142.184 425.533H142.19ZM131.669 421.994L116.356 416.686H193.338L206.609 421.994H131.669ZM106.612 413.147L89.3035 406.955H169.152L184.151 413.147H106.607H106.612ZM152.301 396.338L237.468 396.338L251.941 403.416L169.404 403.416L152.301 396.338ZM143.45 393.684L123.941 385.722H213.471L229.976 393.684L143.444 393.684H143.45ZM195.27 373.337L290.301 373.337L305.615 382.184L213.985 382.184L195.265 373.337H195.27ZM187.437 368.913L165.919 359.182L266.819 359.182L284.427 368.913L187.437 368.913ZM158.91 355.643L134.577 344.142L240.003 344.142L259.916 355.643L158.91 355.643ZM218.227 327.333L331.921 327.333L349.791 340.603H241.2L218.227 327.333ZM211.618 323.794L184.954 308.755L306.775 308.755L327.517 323.794L211.623 323.794H211.618ZM179.179 304.331L148.547 286.638L277.586 286.638L301.41 304.331L179.179 304.331ZM250.492 262.751H391.118L411.077 283.099H278.437L250.492 262.751ZM245.725 259.212L212.972 235.326L364.312 235.326L387.705 259.212H245.72H245.725ZM208.211 230.903L169.509 202.593H333.27L360.916 230.903L208.211 230.903ZM300.297 164.551L480.794 164.551L500.706 199.054L333.48 199.054L300.297 164.551ZM297.226 161.013L257.238 119.432L454.682 119.432L478.673 161.013L297.226 161.013ZM456.95 119.432L655.291 119.432L663.292 161.013L480.946 161.013L456.955 119.432H456.95ZM656.829 119.432L855.533 119.432L847.537 161.013L664.83 161.013L656.829 119.432ZM857.066 119.432L1055.41 119.432L1031.41 161.013L849.065 161.013L857.06 119.432H857.066ZM1057.69 119.432L1255.13 119.432L1215.14 161.013H1033.69L1057.69 119.432ZM1212.07 164.551L1178.88 199.054L1011.66 199.054L1031.57 164.551H1212.07ZM1179.09 202.593L1342.85 202.593L1304.15 230.903L1151.45 230.903L1179.09 202.593ZM1299.39 235.326L1266.64 259.212L1124.65 259.212L1148.04 235.326L1299.39 235.326ZM1261.87 262.751L1233.93 283.099L1101.28 283.099L1121.24 262.751L1261.87 262.751ZM1234.78 286.638H1363.81L1333.18 304.331H1210.95L1234.78 286.638ZM1327.41 308.755L1300.74 323.794H1184.85L1205.59 308.755H1327.41H1327.41ZM1294.13 327.333L1271.16 340.603H1162.57L1180.44 327.333H1294.13ZM1272.36 344.142H1377.78L1353.45 355.643H1252.45L1272.36 344.142ZM1346.44 359.182L1324.92 368.913H1227.94L1245.54 359.182H1346.44ZM1317.09 373.337L1298.37 382.184H1206.74L1222.05 373.337H1317.08H1317.09ZM1298.89 385.722H1388.42L1368.91 393.684H1282.38L1298.88 385.722H1298.89ZM1360.06 396.338L1342.96 403.416H1260.42L1274.89 396.338H1360.06ZM1343.2 406.955H1423.05L1405.74 413.147H1328.2L1343.2 406.955H1343.2ZM1396.01 416.686L1380.69 421.994H1305.75L1319.02 416.686H1396.01ZM1370.17 425.533L1356.92 429.956H1285.89L1297.37 425.533H1370.17H1370.17ZM1357.14 433.495H1425.48L1412.39 437.919H1345.59L1357.14 433.495ZM1401.5 441.457L1389.93 444.996H1324.66L1334.87 441.457H1401.5ZM1306.47 451.189L1315.14 448.535H1377.88L1368.06 451.189H1306.47ZM1233.13 451.189L1240.63 448.535H1304.71L1296.05 451.189H1233.13ZM1159.79 451.189L1166.15 448.535H1231.54L1224.03 451.189H1159.79ZM1086.46 451.189L1091.66 448.535L1158.37 448.535L1152.02 451.189L1086.47 451.189H1086.46ZM1013.15 451.189L1017.19 448.535H1085.18L1079.99 451.189H1013.15ZM939.87 451.189L942.757 448.535H1011.99L1007.94 451.189H939.87ZM866.662 451.189L868.395 448.535H938.762L935.875 451.189H866.662ZM793.622 451.189L794.2 448.535H865.465L863.733 451.189H793.622ZM720.367 448.535H791.989L791.412 451.189H720.944L720.367 448.535ZM718.346 441.457H794.016L793.333 444.996H719.023L718.341 441.457H718.346ZM646.897 448.535L718.162 448.535L718.74 451.189L648.629 451.189L646.897 448.535ZM573.599 448.535H643.967L645.7 451.189H576.487L573.599 448.535ZM500.37 448.535H569.599L572.486 451.189H504.413L500.37 448.535ZM427.173 448.535H495.163L499.205 451.189H432.37L427.173 448.535ZM353.991 448.535H420.7L425.897 451.189H360.343L353.991 448.535ZM280.82 448.535H346.216L352.569 451.189H288.327L280.82 448.535ZM207.649 448.535L271.722 448.535L279.229 451.189L216.311 451.189L207.649 448.535ZM134.483 448.535H197.223L205.885 451.189H144.3L134.478 448.535H134.483ZM61.3222 448.535H122.723L132.546 451.189H72.2995L61.3222 448.535ZM34.9999 441.457H100.265L111.835 444.996H47.9301L34.9947 441.457H34.9999ZM75.1239 433.495L88.2168 437.919H22.7522L8.12113 433.495H75.1239ZM60.2985 425.533H131.769L145.019 429.956H75.3181L60.3038 425.533H60.2985ZM31.0783 416.686H106.717L122.03 421.994H48.4341L31.0783 416.686ZM78.8827 406.955L96.1912 413.147H19.9803L0.367235 406.955H78.8879H78.8827ZM59.3588 396.338H143.203L160.307 403.416H79.0927L59.3536 396.338H59.3588ZM114.849 385.722L134.357 393.684H49.148L26.637 385.722H114.844H114.849ZM93.183 373.337H186.912L205.633 382.184H115.306L93.183 373.337ZM58.5504 359.182H158.144L179.662 368.913H83.9855L58.5504 359.182ZM126.015 344.142L150.652 355.643H49.6993L20.5841 344.142H126.015ZM98.5168 327.333H210.935L233.908 340.603L126.593 340.603L98.5168 327.333ZM57.9414 308.755H178.476L205.139 323.794H90.5319L57.9414 308.755ZM141.103 286.638L171.735 304.331H50.7807L13.3446 286.638H141.108H141.103ZM105.898 262.751L245.284 262.751L273.229 283.099L141.827 283.099L105.898 262.751ZM57.6632 235.326L207.77 235.326L240.523 259.212L99.7715 259.212L57.6579 235.326H57.6632ZM164.302 202.593L203.003 230.903L51.5367 230.903L1.77417 202.593L164.296 202.593H164.302ZM117.941 164.551H297.294L330.478 199.054H164.396L117.941 164.551ZM253.889 119.432L293.881 161.013L113.573 161.013L57.5897 119.432L253.889 119.432ZM452.335 115.894L254.214 115.894L205.36 65.4666L423.026 65.4666L452.34 115.894H452.335ZM654.283 115.894L455.264 115.894L425.955 65.4666L644.513 65.4666L654.283 115.894ZM865.638 65.4666L855.869 115.894L656.488 115.894L646.718 65.4666L865.638 65.4666ZM1086.41 65.4666L1057.1 115.894L858.079 115.894L867.849 65.4666L1086.41 65.4666ZM1258.15 115.894L1060.03 115.894L1089.34 65.4666L1307.01 65.4666L1258.15 115.894H1258.15ZM1398.79 161.013L1218.49 161.013L1258.47 119.432L1454.77 119.432L1398.79 161.013ZM1347.97 199.054L1181.88 199.054L1215.07 164.551L1394.42 164.551L1347.97 199.054ZM1460.83 230.903H1309.36L1348.06 202.593L1510.58 202.593L1460.83 230.903ZM1412.59 259.212H1271.84L1304.6 235.326H1454.7L1412.59 259.212ZM1370.53 283.099H1239.13L1267.07 262.751H1406.46L1370.53 283.099ZM1461.58 304.331H1340.63L1371.26 286.638H1499.02L1461.59 304.331H1461.58ZM1421.82 323.794H1307.22L1333.88 308.755H1454.42L1421.82 323.794ZM1385.76 340.603H1278.45L1301.42 327.333H1413.84L1385.76 340.603ZM1462.66 355.643H1361.7L1386.34 344.142H1491.77L1462.66 355.643ZM1428.38 368.913H1332.7L1354.22 359.182H1453.81L1428.38 368.913ZM1397.05 382.184H1306.72L1325.44 373.337H1419.17L1397.05 382.184ZM1463.21 393.684H1378L1397.51 385.722H1485.72L1463.21 393.684ZM1433.26 403.416H1352.05L1369.15 396.338H1453L1433.26 403.416H1433.26ZM1492.38 413.147H1416.17L1433.48 406.955H1512L1492.39 413.147H1492.38ZM1463.93 421.994H1390.33L1405.64 416.686H1481.28L1463.93 421.994ZM1437.05 429.956H1367.35L1380.6 425.533H1452.07L1437.05 429.956H1437.05ZM1424.15 437.919L1437.24 433.495H1504.24L1489.61 437.919H1424.15ZM1400.52 444.996L1412.09 441.457H1477.36L1464.42 444.996H1400.52H1400.52Z" fill="url(#paint0_linear_2503_2746)"/>
</g>
<g opacity="0.5">
<path d="M0.115702 530.811L58.8395 530.811L47.8623 533.465L0.0370069 533.465L0.0370066 537.004L35.7458 537.004L22.8104 540.542L0.0370063 540.542L0.037006 544.081L9.47607 544.081L0.0370058 546.665L0.0370053 552.043L63.3753 552.043L48.361 556.467L0.0370049 556.467L0.0370046 560.006L37.1738 560.006L19.8181 565.314L0.0370042 565.314L0.0370039 568.852L8.04289 568.852L0.0370037 571.303L0.037003 578.584L68.4939 578.584L48.7547 585.661L0.0317475 585.661L0.0317473 588.315L39.3367 588.315L16.3637 596.278L0.0317466 596.278L0.0317463 599.816L5.78547 599.816L0.0317461 601.807L0.0317458 605.399L16.1485 599.816L105.158 599.816L83.0357 608.663L0.0317455 608.663L0.0317452 613.087L74.7044 613.087L49.2692 622.818L0.0317443 622.818L0.031744 626.357L39.9247 626.357L11.1665 637.858L0.031743 637.858L0.0317427 641.396L2.4413 641.396L0.0317426 642.361L0.0317423 645.97L11.4709 641.396L117.485 641.396L89.409 654.667L0.0369965 654.667L0.0369962 658.205L82.579 658.205L49.9884 673.245L0.0369949 673.245L0.0369945 677.669L42.1715 677.669L4.73551 695.362L0.036993 695.362L0.0369925 701.228L5.06092 698.901L135.176 698.901L99.247 719.249L0.0369909 719.249L0.0369906 722.787L93.1204 722.787L51.0069 746.674L0.0369885 746.674L0.0369881 751.097L44.7019 751.097L0.0369859 776.727L0.0369854 782.946L160.281 782.946L113.826 817.449L0.0369824 817.449L0.0369821 820.987L108.781 820.987L52.7971 862.568L0.0421053 862.568L0.042105 866.106L47.8517 866.106L0.0421019 901.352L0.0421016 905.192L53.0596 866.106L250.041 866.106L201.187 916.533L0.0421006 916.533L0.0421003 920.072L197.785 920.072L138.499 982L142.5 982L201.785 920.072L420.811 920.072L385.238 982L388.168 982L423.74 920.072L643.663 920.072L631.804 982L634.009 982L645.868 920.072L866.148 920.072L878.007 982L880.212 982L868.353 920.072L1088.28 920.072L1123.84 982L1126.77 982L1091.2 920.072L1310.23 920.072L1369.51 982L1373.51 982L1314.23 920.072L1511.97 920.072L1511.97 916.533L1310.82 916.533L1261.97 866.106L1458.95 866.106L1511.97 905.192L1511.97 901.352L1464.16 866.106L1511.97 866.106L1511.97 862.568L1459.21 862.568L1403.23 820.987L1511.97 820.987L1511.97 817.449L1398.18 817.449L1351.73 782.946L1511.97 782.946L1511.97 776.656L1467.72 751.097L1511.97 751.097L1511.97 746.674L1461 746.674L1418.89 722.788L1511.97 722.788L1511.97 719.249L1412.76 719.249L1376.83 698.901L1506.94 698.901L1511.97 701.228L1511.97 695.362L1507.27 695.362L1469.83 677.669L1511.97 677.669L1511.97 673.245L1462.02 673.245L1429.43 658.206L1511.97 658.206L1511.97 654.667L1422.6 654.667L1394.52 641.397L1500.53 641.397L1511.97 645.97L1511.97 642.361L1509.56 641.397L1511.97 641.397L1511.97 637.858L1500.83 637.858L1472.08 626.357L1511.97 626.357L1511.97 622.818L1462.73 622.818L1437.29 613.087L1511.97 613.087L1511.97 608.663L1428.96 608.663L1406.84 599.816L1495.85 599.816L1511.97 605.399L1511.97 601.807L1506.22 599.816L1511.97 599.816L1511.97 596.278L1495.64 596.278L1472.66 588.316L1511.97 588.316L1511.97 585.662L1463.25 585.661L1443.51 578.584L1511.97 578.584L1511.97 571.347L1503.8 568.853L1511.97 568.853L1511.97 565.314L1492.19 565.314L1474.83 560.006L1511.97 560.006L1511.97 556.467L1463.64 556.467L1448.63 552.043L1511.97 552.044L1511.97 546.806L1502 544.081L1511.97 544.081L1511.97 540.543L1489.19 540.543L1476.25 537.004L1511.97 537.004L1511.97 533.465L1463.78 533.465L1452.8 530.811L1511.89 530.811L1511.97 530.829L1511.97 527.272L0.0370075 527.29L0.0370072 530.829L0.115702 530.811ZM132.184 530.811L122.362 533.465L60.9604 533.465L71.9377 530.811L132.184 530.811ZM795.114 552.043L795.996 556.467L715.643 556.467L716.525 552.043L795.108 552.043L795.114 552.043ZM717.207 548.505L717.979 544.081L793.665 544.081L794.436 548.505L717.212 548.505L717.207 548.505ZM800.201 578.584L801.518 585.661L710.12 585.661L711.438 578.584L800.201 578.584ZM712.12 575.045L713.275 568.852L798.374 568.852L799.529 575.045L712.125 575.045L712.12 575.045ZM684.312 719.249L688.302 698.901L823.336 698.901L827.326 719.249L684.307 719.249L684.312 719.249ZM828.009 722.787L832.686 746.674L678.947 746.674L683.624 722.787L828.003 722.787L828.009 722.787ZM693.095 673.245L696.056 658.206L815.582 658.206L818.543 673.245L693.09 673.245L693.095 673.245ZM818.738 677.669L822.139 695.362L689.499 695.362L692.901 677.669L818.738 677.669ZM697.169 654.667L699.72 641.397L811.918 641.397L814.469 654.667L697.169 654.667ZM707.563 599.816L804.08 599.816L805.781 608.663L705.862 608.663L707.563 599.816ZM705.731 596.278L610.332 596.278L614.837 588.315L707.233 588.315L705.731 596.278ZM702.912 622.818L704.87 613.087L806.779 613.087L808.737 622.818L702.917 622.818L702.912 622.818ZM808.752 626.357L810.963 637.858L700.676 637.858L702.886 626.357L808.747 626.357L808.752 626.357ZM804.406 588.315L896.802 588.316L901.306 596.278L805.907 596.278L804.406 588.315ZM893.746 578.584L981.254 578.584L987.832 585.661L897.694 585.661L893.746 578.584ZM991.234 588.316L998.736 596.278L904.235 596.278L899.731 588.316L991.234 588.316ZM908.167 608.663L808.605 608.663L806.905 599.816L903.065 599.816L908.167 608.663ZM910.524 613.087L916.394 622.818L810.936 622.818L808.978 613.087L910.524 613.087ZM917.822 626.357L924.457 637.858L814.527 637.858L812.317 626.357L917.822 626.357ZM697.111 637.858L587.181 637.858L593.817 626.357L699.321 626.357L697.111 637.858ZM595.245 622.818L601.114 613.087L702.66 613.087L700.702 622.818L595.245 622.818ZM603.471 608.663L608.574 599.816L704.734 599.816L703.033 608.663L603.471 608.663ZM607.403 596.278L512.902 596.278L520.404 588.315L611.907 588.315L607.403 596.278ZM523.806 585.661L530.384 578.584L617.892 578.584L613.944 585.661L523.806 585.661ZM529.791 575.045L444.781 575.045L452.855 568.852L535.555 568.852L529.785 575.045L529.791 575.045ZM539.56 568.852L623.399 568.852L619.94 575.045L533.791 575.045L539.56 568.852ZM620.827 578.584L709.233 578.584L707.915 585.661L616.879 585.661L620.827 578.584ZM709.443 588.315L802.201 588.315L803.702 596.278L707.941 596.278L709.443 588.315ZM802.411 578.584L890.817 578.584L894.765 585.661L803.729 585.661L802.411 578.584ZM888.239 568.852L972.078 568.852L977.847 575.045L891.699 575.045L888.239 568.852ZM976.078 568.852L1058.78 568.852L1066.85 575.045L981.842 575.045L976.073 568.852L976.078 568.852ZM1063.99 568.852L1145.45 568.852L1155.83 575.045L1072.06 575.045L1063.99 568.852ZM1080.83 585.661L991.833 585.661L985.255 578.584L1071.62 578.584L1080.84 585.661L1080.83 585.661ZM1085.6 588.316L1096.1 596.278L1002.74 596.278L995.24 588.316L1085.6 588.316L1085.6 588.316ZM1010.38 608.663L911.706 608.663L906.603 599.816L1001.87 599.816L1010.38 608.663ZM1014.11 613.087L1023.89 622.818L919.323 622.818L913.454 613.087L1014.1 613.087L1014.11 613.087ZM1026.71 626.357L1037.77 637.858L928.725 637.858L922.09 626.357L1026.71 626.357L1026.71 626.357ZM934.474 654.667L817.53 654.667L814.979 641.397L926.814 641.397L934.474 654.667ZM936.957 658.206L945.845 673.245L820.753 673.245L817.793 658.206L936.957 658.206ZM947.441 677.669L957.652 695.362L825.368 695.362L821.966 677.669L947.446 677.669L947.441 677.669ZM686.276 695.362L553.992 695.362L564.203 677.669L689.683 677.669L686.281 695.362L686.276 695.362ZM565.793 673.245L574.681 658.206L693.846 658.206L690.885 673.245L565.793 673.245ZM577.164 654.667L584.824 641.397L696.665 641.397L694.113 654.667L577.17 654.667L577.164 654.667ZM582.913 637.858L473.87 637.858L484.931 626.357L589.554 626.357L582.918 637.858L582.913 637.858ZM487.751 622.818L497.531 613.087L598.179 613.087L592.31 622.818L487.745 622.818L487.751 622.818ZM501.263 608.663L509.773 599.816L605.041 599.816L599.938 608.663L501.263 608.663ZM508.902 596.278L415.54 596.278L426.045 588.315L516.409 588.315L508.907 596.278L508.902 596.278ZM430.806 585.661L440.02 578.584L526.389 578.584L519.811 585.661L430.811 585.661L430.806 585.661ZM439.579 575.045L355.808 575.045L366.192 568.852L447.653 568.852L439.579 575.045ZM371.857 565.314L381.044 560.006L459.948 560.006L452.803 565.314L371.857 565.314ZM464.316 560.006L544.469 560.006L539.366 565.314L457.171 565.314L464.316 560.006ZM547.619 560.006L628.922 560.006L625.861 565.314L542.516 565.314L547.619 560.006ZM626.328 568.852L711.065 568.852L709.91 575.045L622.869 575.045L626.328 568.852ZM800.573 568.852L885.31 568.852L888.769 575.045L801.728 575.045L800.573 568.852ZM882.716 560.006L964.02 560.006L969.122 565.314L885.777 565.314L882.716 560.006ZM967.169 560.006L1047.32 560.006L1054.47 565.314L972.272 565.314L967.169 560.006ZM1051.69 560.006L1130.59 560.006L1139.78 565.314L1058.84 565.314L1051.69 560.006ZM1136.24 560.006L1213.85 560.006L1225.07 565.314L1145.43 565.314L1136.24 560.006ZM1232.1 568.852L1244.8 575.045L1162.31 575.045L1151.93 568.852L1232.11 568.852L1232.1 568.852ZM1173.8 585.661L1086.03 585.661L1076.82 578.584L1161.95 578.584L1173.79 585.661L1173.8 585.661ZM1179.93 588.316L1193.43 596.278L1101.31 596.278L1090.8 588.316L1179.93 588.316ZM1112.52 608.663L1014.98 608.663L1006.47 599.816L1100.61 599.816L1112.52 608.663ZM1117.62 613.087L1131.31 622.818L1027.89 622.818L1018.11 613.087L1117.62 613.087ZM1135.53 626.357L1151.02 637.858L1043.1 637.858L1032.04 626.357L1135.53 626.357ZM1054.29 654.667L938.238 654.667L930.579 641.397L1041.53 641.397L1054.29 654.667L1054.29 654.667ZM1058.15 658.206L1072.97 673.245L948.774 673.245L939.886 658.206L1058.16 658.206L1058.15 658.206ZM1075.95 677.669L1092.97 695.362L961.573 695.362L951.362 677.669L1075.95 677.669L1075.95 677.669ZM972.193 719.249L829.536 719.249L825.546 698.901L960.219 698.901L972.193 719.249ZM974.236 722.787L988.273 746.674L834.896 746.674L830.219 722.787L974.241 722.787L974.236 722.787ZM990.316 751.097L1006.9 779.407L841.107 779.407L835.579 751.097L990.316 751.097ZM838.897 779.407L672.742 779.407L678.27 751.097L833.369 751.097L838.897 779.407ZM670.532 779.407L504.733 779.407L521.317 751.097L676.054 751.097L670.526 779.407L670.532 779.407ZM523.365 746.674L537.403 722.787L681.425 722.787L676.747 746.674L523.37 746.674L523.365 746.674ZM539.445 719.249L551.42 698.901L686.092 698.901L682.102 719.249L539.445 719.249ZM550.065 695.362L418.669 695.362L435.683 677.669L560.271 677.669L550.06 695.362L550.065 695.362ZM438.67 673.245L453.485 658.206L571.757 658.206L562.869 673.245L438.676 673.245L438.67 673.245ZM457.344 654.667L470.106 641.397L581.055 641.397L573.395 654.667L457.339 654.667L457.344 654.667ZM468.547 637.858L360.627 637.858L376.114 626.357L479.608 626.357L468.547 637.858ZM380.33 622.818L394.026 613.087L493.536 613.087L483.755 622.818L380.33 622.818ZM399.119 608.663L411.03 599.816L505.169 599.816L496.659 608.663L399.119 608.663ZM410.332 596.278L318.204 596.278L331.712 588.315L420.837 588.315L410.332 596.278ZM337.838 585.661L349.682 578.584L434.812 578.584L425.598 585.661L337.833 585.661L337.838 585.661ZM349.33 575.045L266.846 575.045L279.54 568.852L359.719 568.852L349.335 575.045L349.33 575.045ZM286.564 565.314L297.793 560.006L375.395 560.006L366.208 565.314L286.564 565.314ZM305.626 556.467L315.343 552.043L389.013 552.043L381.065 556.467L305.631 556.467L305.626 556.467ZM395.486 552.043L470.437 552.043L464.253 556.467L387.532 556.467L395.481 552.043L395.486 552.043ZM475.645 552.043L551.834 552.043L547.419 556.467L469.46 556.467L475.645 552.043ZM555.835 552.043L633.164 552.043L630.513 556.467L551.414 556.467L555.829 552.043L555.835 552.043ZM713.202 560.006L712.183 565.314L627.93 565.314L630.99 560.006L713.202 560.006ZM633.442 556.467L636.093 552.043L714.32 552.043L713.438 556.467L633.447 556.467L633.442 556.467ZM714.535 560.006L797.109 560.006L798.127 565.314L713.511 565.314L714.53 560.006L714.535 560.006ZM797.319 552.043L875.545 552.043L878.196 556.467L798.206 556.467L797.324 552.043L797.319 552.043ZM880.648 560.006L883.709 565.314L799.455 565.314L798.437 560.006L880.648 560.006ZM878.475 552.043L955.804 552.043L960.219 556.467L881.12 556.467L878.469 552.043L878.475 552.043ZM959.804 552.043L1035.99 552.043L1042.18 556.467L964.219 556.467L959.804 552.043ZM1041.2 552.043L1116.15 552.043L1124.1 556.467L1047.38 556.467L1041.2 552.043L1041.2 552.043ZM1122.63 552.043L1196.3 552.043L1206.02 556.467L1130.58 556.467L1122.64 552.043L1122.63 552.043ZM1204.08 552.043L1276.43 552.043L1287.91 556.467L1213.79 556.467L1204.08 552.043ZM1297.09 560.006L1310.36 565.314L1232.04 565.314L1220.81 560.006L1297.09 560.006ZM1318.75 568.852L1333.74 575.045L1252.57 575.045L1239.87 568.852L1318.74 568.852L1318.75 568.852ZM1266.76 585.661L1180.28 585.661L1168.43 578.584L1252.28 578.584L1266.76 585.661ZM1274.24 588.316L1290.75 596.278L1199.91 596.278L1186.4 588.316L1274.24 588.316L1274.24 588.316ZM1214.63 608.663L1118.32 608.663L1106.41 599.816L1199.31 599.816L1214.63 608.663L1214.63 608.663ZM1221.1 613.087L1238.7 622.818L1136.52 622.818L1122.82 613.087L1221.1 613.087ZM1244.32 626.357L1264.23 637.858L1157.54 637.858L1142.05 626.357L1244.32 626.357ZM1174.05 654.667L1059.13 654.667L1046.37 641.397L1156.19 641.397L1174.06 654.667L1174.05 654.667ZM1179.29 658.206L1200.03 673.245L1076.97 673.245L1062.16 658.206L1179.29 658.206L1179.29 658.206ZM1204.4 677.669L1228.22 695.362L1097.96 695.362L1080.94 677.669L1204.4 677.669ZM1116.89 719.249L975.123 719.249L963.148 698.901L1096.93 698.901L1116.89 719.249ZM1120.29 722.788L1143.68 746.674L991.203 746.674L977.165 722.787L1120.29 722.788ZM1147.09 751.097L1174.73 779.407L1009.83 779.407L993.25 751.097L1147.09 751.097L1147.09 751.097ZM1029.28 817.449L847.879 817.449L841.243 782.946L1009.37 782.946L1029.28 817.449ZM846.703 817.449L664.941 817.449L671.576 782.946L840.067 782.946L846.703 817.449ZM663.759 817.449L482.359 817.449L502.271 782.946L670.4 782.946L663.765 817.449L663.759 817.449ZM501.809 779.407L336.909 779.407L364.554 751.097L518.399 751.097L501.815 779.407L501.809 779.407ZM367.956 746.674L391.349 722.787L534.473 722.787L520.436 746.674L367.951 746.674L367.956 746.674ZM394.751 719.249L414.71 698.901L548.49 698.901L536.516 719.249L394.751 719.249ZM413.682 695.362L283.414 695.362L307.237 677.669L430.696 677.669L413.682 695.362ZM311.616 673.245L332.357 658.205L449.49 658.206L434.675 673.245L311.621 673.245L311.616 673.245ZM337.592 654.667L355.462 641.397L465.281 641.397L452.519 654.667L337.597 654.667L337.592 654.667ZM354.107 637.858L247.411 637.858L267.323 626.357L369.594 626.357L354.107 637.858ZM272.935 622.818L290.543 613.087L388.819 613.087L375.122 622.818L272.935 622.818ZM297.006 608.663L312.319 599.816L405.224 599.816L393.312 608.663L297 608.663L297.006 608.663ZM311.731 596.278L220.889 596.278L237.394 588.315L325.234 588.315L311.726 596.278L311.731 596.278ZM244.886 585.661L259.36 578.584L343.209 578.584L331.365 585.661L244.886 585.661ZM259.071 575.045L177.894 575.045L192.892 568.852L271.759 568.852L259.066 575.045L259.071 575.045ZM201.276 565.314L214.548 560.006L290.827 560.006L279.597 565.314L201.276 565.314ZM223.724 556.467L235.205 552.043L307.563 552.043L297.845 556.467L223.719 556.467L223.724 556.467ZM234.959 548.505L165.289 548.505L176.838 544.081L244.97 544.081L234.959 548.505ZM186.367 540.542L196.578 537.004L263.197 537.004L254.346 540.542L186.362 540.542L186.367 540.542ZM323.522 544.081L315.049 548.505L244.051 548.505L254.062 544.081L323.517 544.081L323.522 544.081ZM262.231 540.543L271.082 537.004L339.051 537.004L331.565 540.543L262.236 540.543L262.231 540.543ZM402.069 544.081L395.139 548.505L322.834 548.505L331.307 544.081L402.074 544.081L402.069 544.081ZM338.106 540.543L345.592 537.004L414.894 537.004L408.768 540.543L338.101 540.543L338.106 540.543ZM480.595 544.081L475.204 548.505L401.612 548.505L408.542 544.081L480.595 544.081ZM413.986 540.543L420.113 537.004L490.722 537.004L485.955 540.543L413.981 540.543L413.986 540.543ZM559.09 544.081L555.241 548.505L480.411 548.505L485.803 544.081L559.09 544.081ZM489.882 540.543L494.649 537.004L566.518 537.004L563.116 540.543L489.882 540.543ZM637.516 544.081L635.206 548.505L559.237 548.505L563.085 544.081L637.516 544.081ZM565.809 540.543L569.211 537.004L642.241 537.004L640.198 540.543L565.804 540.543L565.809 540.543ZM715.769 544.081L714.997 548.505L638.135 548.505L640.445 544.081L715.769 544.081ZM641.81 540.543L643.852 537.004L717.795 537.004L717.113 540.543L641.81 540.543ZM793.843 537.004L867.786 537.004L869.828 540.543L794.526 540.543L793.843 537.004ZM871.193 544.081L873.503 548.505L796.641 548.505L795.87 544.081L871.193 544.081ZM869.393 537.004L942.422 537.004L945.824 540.543L871.429 540.543L869.387 537.004L869.393 537.004ZM948.548 544.081L952.397 548.505L876.427 548.505L874.117 544.081L948.543 544.081L948.548 544.081ZM945.12 537.004L1016.99 537.004L1021.76 540.543L948.522 540.543L945.12 537.004ZM1025.84 544.081L1031.23 548.505L956.402 548.505L952.554 544.081L1025.84 544.081ZM1020.92 537.004L1091.53 537.004L1097.65 540.543L1025.68 540.543L1020.91 537.004L1020.92 537.004ZM1103.1 544.081L1110.03 548.505L1036.43 548.505L1031.04 544.081L1103.1 544.081ZM1096.74 537.004L1166.05 537.004L1173.53 540.543L1102.87 540.543L1096.74 537.004L1096.74 537.004ZM1180.34 544.081L1188.81 548.505L1116.51 548.505L1109.58 544.081L1180.35 544.081L1180.34 544.081ZM1172.59 537.004L1240.56 537.004L1249.41 540.543L1180.08 540.543L1172.59 537.004L1172.59 537.004ZM1257.57 544.081L1267.58 548.505L1196.58 548.505L1188.11 544.081L1257.57 544.081L1257.57 544.081ZM1248.44 537.004L1315.06 537.004L1325.27 540.543L1257.29 540.543L1248.44 537.004L1248.44 537.004ZM1334.8 544.081L1346.35 548.505L1276.67 548.505L1266.66 544.081L1334.79 544.081L1334.8 544.081ZM1324.3 537.004L1389.57 537.004L1401.14 540.543L1334.51 540.543L1324.3 537.004ZM1412.02 544.081L1425.12 548.505L1356.78 548.505L1345.23 544.081L1412.02 544.081ZM1369.81 556.467L1297.01 556.467L1285.53 552.043L1356.57 552.043L1369.82 556.467L1369.81 556.467ZM1380.33 560.006L1395.64 565.314L1318.66 565.314L1305.39 560.006L1380.33 560.006ZM1405.39 568.852L1422.7 575.045L1342.85 575.045L1327.85 568.852L1405.39 568.852L1405.39 568.852ZM1359.7 585.661L1274.53 585.661L1260.06 578.584L1342.6 578.584L1359.7 585.661ZM1368.55 588.316L1388.06 596.278L1298.53 596.278L1282.02 588.316L1368.56 588.316L1368.55 588.316ZM1316.73 608.663L1221.7 608.663L1206.39 599.816L1298.01 599.816L1316.74 608.663L1316.73 608.663ZM1324.56 613.087L1346.08 622.818L1245.18 622.818L1227.57 613.087L1324.56 613.087ZM1353.09 626.357L1377.42 637.858L1272 637.858L1252.08 626.357L1353.09 626.357ZM1293.77 654.667L1180.08 654.667L1162.21 641.397L1270.8 641.397L1293.77 654.667ZM1300.38 658.206L1327.05 673.245L1205.23 673.245L1184.48 658.206L1300.38 658.206L1300.38 658.206ZM1332.82 677.669L1363.45 695.362L1234.41 695.362L1210.59 677.669L1332.82 677.669ZM1261.51 719.249L1120.88 719.249L1100.92 698.901L1233.56 698.901L1261.51 719.249ZM1266.27 722.788L1299.03 746.674L1147.69 746.674L1124.29 722.788L1266.28 722.788L1266.27 722.788ZM1303.79 751.097L1342.49 779.407L1178.73 779.407L1151.08 751.097L1303.79 751.097ZM1211.7 817.449L1031.21 817.449L1011.29 782.946L1178.52 782.946L1211.7 817.449ZM1214.77 820.987L1254.76 862.568L1057.32 862.568L1033.33 820.987L1214.77 820.987ZM1055.05 862.568L856.709 862.568L848.708 820.987L1031.05 820.987L1055.05 862.568L1055.05 862.568ZM855.171 862.568L656.467 862.568L664.463 820.987L847.17 820.987L855.171 862.568ZM654.934 862.568L456.593 862.568L480.59 820.987L662.935 820.987L654.94 862.568L654.934 862.568ZM454.315 862.568L256.871 862.568L296.859 820.987L478.306 820.987L454.315 862.568ZM299.935 817.449L333.119 782.946L500.345 782.946L480.432 817.449L299.935 817.449ZM332.909 779.407L169.148 779.407L207.849 751.097L360.554 751.097L332.909 779.407ZM212.61 746.674L245.364 722.787L387.349 722.787L363.956 746.674L212.61 746.674ZM250.13 719.249L278.075 698.901L410.715 698.901L390.756 719.249L250.13 719.249ZM277.224 695.362L148.185 695.362L178.818 677.669L301.048 677.669L277.224 695.362ZM184.592 673.245L211.256 658.205L327.15 658.205L306.408 673.245L184.587 673.245L184.592 673.245ZM217.865 654.667L240.838 641.396L349.43 641.397L331.56 654.667L217.865 654.667ZM239.641 637.858L134.216 637.858L158.548 626.357L259.554 626.357L239.641 637.858ZM165.557 622.818L187.075 613.087L284.065 613.087L266.457 622.818L165.557 622.818ZM194.913 608.663L213.634 599.816L305.263 599.816L289.95 608.663L194.919 608.663L194.913 608.663ZM213.114 596.278L123.585 596.278L143.093 588.315L229.625 588.315L213.12 596.278L213.114 596.278ZM151.939 585.661L169.043 578.584L251.579 578.584L237.106 585.661L151.939 585.661ZM168.796 575.045L88.9469 575.045L106.255 568.852L183.8 568.852L168.801 575.045L168.796 575.045ZM115.994 565.314L131.307 560.006L206.248 560.006L192.976 565.314L115.994 565.314ZM141.828 556.467L155.078 552.043L226.113 552.043L214.631 556.467L141.833 556.467L141.828 556.467ZM154.863 548.505L86.5216 548.505L99.6145 544.081L166.412 544.081L154.863 548.505ZM110.502 540.542L122.073 537.004L187.338 537.004L177.127 540.542L110.502 540.542ZM205.528 530.811L196.861 533.465L134.121 533.465L143.943 530.811L205.528 530.811ZM278.873 530.811L271.366 533.465L207.292 533.465L215.954 530.811L278.873 530.811ZM352.207 530.811L345.855 533.465L280.458 533.465L287.965 530.811L352.207 530.811ZM425.535 530.811L420.338 533.465L353.629 533.465L359.982 530.811L425.53 530.811L425.535 530.811ZM498.849 530.811L494.806 533.465L426.816 533.465L432.014 530.811L498.849 530.811ZM572.13 530.811L569.243 533.465L500.014 533.465L504.056 530.811L572.13 530.811ZM645.338 530.811L643.605 533.465L573.238 533.465L576.125 530.811L645.338 530.811ZM718.378 530.811L717.8 533.465L646.535 533.465L648.267 530.811L718.378 530.811ZM791.633 533.465L720.011 533.465L720.588 530.811L791.056 530.811L791.633 533.465ZM793.654 540.543L717.984 540.543L718.667 537.004L792.977 537.004L793.659 540.543L793.654 540.543ZM865.103 533.465L793.838 533.465L793.26 530.811L863.371 530.811L865.103 533.465ZM938.401 533.465L868.033 533.465L866.3 530.811L935.513 530.811L938.401 533.465ZM1011.63 533.465L942.401 533.465L939.514 530.811L1007.59 530.811L1011.63 533.465ZM1084.83 533.465L1016.84 533.465L1012.8 530.811L1079.63 530.811L1084.83 533.465ZM1158.01 533.465L1091.3 533.465L1086.1 530.811L1151.66 530.811L1158.01 533.465ZM1231.18 533.465L1165.78 533.465L1159.43 530.811L1223.67 530.811L1231.18 533.465ZM1304.35 533.465L1240.28 533.465L1232.77 530.811L1295.69 530.811L1304.35 533.465ZM1377.52 533.465L1314.78 533.465L1306.12 530.811L1367.7 530.811L1377.52 533.465L1377.52 533.465ZM1450.68 533.465L1389.28 533.465L1379.45 530.811L1439.7 530.811L1450.68 533.465ZM1477 540.543L1411.74 540.543L1400.16 537.004L1464.07 537.004L1477.01 540.543L1477 540.543ZM1436.88 548.505L1423.78 544.081L1489.25 544.081L1503.88 548.505L1436.88 548.505ZM1451.7 556.467L1380.23 556.467L1366.98 552.043L1436.68 552.043L1451.7 556.467L1451.7 556.467ZM1480.92 565.314L1405.28 565.314L1389.97 560.006L1463.57 560.006L1480.92 565.314ZM1433.12 575.045L1415.81 568.852L1492.02 568.853L1511.63 575.045L1433.11 575.045L1433.12 575.045ZM1452.64 585.661L1368.8 585.661L1351.69 578.584L1432.91 578.584L1452.65 585.661L1452.64 585.661ZM1397.15 596.278L1377.64 588.316L1462.85 588.316L1485.36 596.278L1397.16 596.278L1397.15 596.278ZM1418.82 608.663L1325.09 608.663L1306.37 599.816L1396.69 599.816L1418.82 608.663ZM1453.45 622.818L1353.86 622.818L1332.34 613.087L1428.01 613.087L1453.45 622.818ZM1385.98 637.858L1361.35 626.357L1462.3 626.357L1491.42 637.858L1385.98 637.858ZM1413.48 654.667L1301.06 654.667L1278.09 641.397L1385.41 641.397L1413.48 654.667ZM1454.06 673.245L1333.52 673.245L1306.86 658.206L1421.47 658.206L1454.06 673.245ZM1370.9 695.362L1340.26 677.669L1461.22 677.669L1498.66 695.362L1370.89 695.362L1370.9 695.362ZM1406.1 719.249L1266.72 719.249L1238.77 698.901L1370.17 698.901L1406.1 719.249ZM1454.34 746.674L1304.23 746.674L1271.48 722.788L1412.23 722.788L1454.34 746.674L1454.34 746.674ZM1347.7 779.407L1309 751.097L1460.46 751.097L1510.23 779.407L1347.7 779.407L1347.7 779.407ZM1394.06 817.449L1214.71 817.449L1181.52 782.946L1347.6 782.946L1394.06 817.449ZM1258.11 862.568L1218.12 820.987L1398.43 820.987L1454.41 862.568L1258.11 862.568ZM1059.66 866.106L1257.79 866.106L1306.64 916.533L1088.97 916.533L1059.66 866.106L1059.66 866.106ZM857.717 866.106L1056.74 866.106L1086.04 916.533L867.487 916.533L857.717 866.106ZM646.362 916.533L656.131 866.106L855.512 866.106L865.282 916.533L646.362 916.533ZM425.593 916.533L454.903 866.106L653.921 866.106L644.151 916.533L425.593 916.533ZM253.853 866.106L451.973 866.106L422.659 916.533L204.993 916.533L253.847 866.106L253.853 866.106ZM113.211 820.987L293.514 820.987L253.527 862.568L57.2279 862.568L113.211 820.987ZM164.034 782.946L330.116 782.946L296.932 817.449L117.579 817.449L164.034 782.946ZM51.1749 751.097L202.641 751.097L163.94 779.407L1.41761 779.407L51.1749 751.097ZM99.4096 722.787L240.156 722.787L207.403 746.674L57.2961 746.674L99.4096 722.787ZM141.471 698.901L272.872 698.901L244.928 719.249L105.541 719.249L141.471 698.901ZM50.419 677.669L171.373 677.669L140.741 695.362L12.9776 695.362L50.4137 677.669L50.419 677.669ZM90.1754 658.205L204.783 658.205L178.119 673.245L57.5848 673.245L90.1754 658.205ZM126.236 641.396L233.552 641.396L210.579 654.667L98.1603 654.667L126.236 641.396ZM49.3427 626.357L150.296 626.357L125.658 637.858L20.2276 637.858L49.3427 626.357ZM83.6237 613.087L179.301 613.087L157.782 622.818L58.1885 622.818L83.6237 613.087ZM114.949 599.816L205.276 599.816L186.556 608.663L92.8266 608.663L114.949 599.816ZM48.7915 588.315L133.995 588.315L114.487 596.278L26.2806 596.278L48.7915 588.315ZM78.7362 578.584L159.95 578.584L142.846 585.661L59.0022 585.661L78.7414 578.584L78.7362 578.584ZM19.6185 568.852L95.8294 568.852L78.521 575.045L0.000219107 575.045L19.6133 568.852L19.6185 568.852ZM48.0723 560.006L121.669 560.006L106.355 565.314L30.7166 565.314L48.0723 560.006ZM74.9511 552.043L144.652 552.043L131.402 556.467L59.9315 556.467L74.9458 552.043L74.9511 552.043ZM87.8549 544.081L74.7621 548.505L7.75939 548.505L22.3904 544.081L87.8549 544.081ZM111.479 537.004L99.9085 540.542L34.6434 540.542L47.5788 537.004L111.484 537.004L111.479 537.004Z" fill="url(#paint1_linear_2503_2746)"/>
</g>
</g>
<defs>
<linearGradient id="paint0_linear_2503_2746" x1="733.332" y1="-2.87522" x2="733.332" y2="503.164" gradientUnits="userSpaceOnUse">
<stop stop-color="#4AABFF"/>
<stop offset="0.888112" stop-color="#4AABFF" stop-opacity="0"/>
</linearGradient>
<linearGradient id="paint1_linear_2503_2746" x1="778.668" y1="984.875" x2="778.668" y2="478.836" gradientUnits="userSpaceOnUse">
<stop stop-color="#4AABFF"/>
<stop offset="0.888112" stop-color="#4AABFF" stop-opacity="0"/>
</linearGradient>
<clipPath id="clip0_2503_2746">
<rect width="1512" height="982" fill="white"/>
</clipPath>
</defs>
</svg>
