<svg width="619" height="57" viewBox="0 0 619 57" fill="none" xmlns="http://www.w3.org/2000/svg">
<path d="M77.416 7.23644C77.0103 4.99124 75.7389 3.23294 73.6289 1.93451C71.4919 0.663132 68.7598 0.013916 65.4055 0.013916H9.16721L17.4718 7.534L0.538055 56.4416H52.2589C55.532 56.4416 58.5347 55.603 61.1856 53.9259C63.8636 52.2487 66.0818 50.1658 67.8942 47.7042C69.7066 45.2156 71.0321 42.5646 71.8436 39.6972C72.6551 36.8569 72.8445 34.233 72.4117 31.8255C71.8977 29.0122 70.6263 26.9023 68.5975 25.5497C69.8148 24.8194 71.0321 23.7103 72.2223 22.2496C73.4125 20.7888 74.4404 19.1658 75.279 17.3804C76.1176 15.5951 76.7668 13.8098 77.1726 12.0244C77.5783 10.212 77.6865 8.61603 77.416 7.20939V7.23644ZM52.9622 37.6414L52.5024 38.8857C52.1778 39.9407 51.3933 40.8334 50.176 41.6178C48.9587 42.4023 47.6874 42.781 46.3348 42.781H24.2074L25.9927 37.6955L21.5023 33.6108H27.4264H49.5538C51.6908 33.6108 52.8811 34.3683 53.1516 35.8831C53.2327 36.3429 53.1516 36.9381 52.9622 37.6143V37.6414ZM56.6411 17.5698L56.2624 18.6789C55.8837 19.7879 55.0722 20.7077 53.8549 21.4921C52.6376 22.2766 51.3662 22.6553 50.0137 22.6553H31.1594L32.6472 18.3002L27.4535 13.5933H34.2702L53.1245 13.5663C55.2615 13.5663 56.4518 14.4049 56.7493 16.082C56.8575 16.6501 56.8034 17.164 56.6411 17.5698Z" fill="#FB11EA"/>
<path d="M145.435 0.0270507H85.8424L94.4174 7.79059L77.5649 56.4547H96.5004L102.884 37.9521H112.054L121.928 56.4547H143.677L131.964 37.9521H135.453C135.859 37.8168 149.628 29.3229 151.819 27.754L156.796 12.8491C156.282 12.308 146.03 0.40576 145.435 0V0.0270507ZM137.212 14.6885L134.02 23.9398C133.83 24.6161 133.289 24.9678 132.451 24.9678H107.429L109.349 19.4224L103.047 13.7147H111.324H136.346C137.185 13.7147 137.482 14.0663 137.212 14.7426V14.6885Z" fill="#FB11EA"/>
<path d="M186.958 13.6606H226.019L230.726 0.0270996H162.233L170.213 7.24963L156.796 45.9862C157.283 46.5001 165.047 55.8056 165.263 56.4277H211.168L215.902 42.7942H176.841L178.437 38.1956L173.73 33.9486H185.876H214.576L218.526 22.5062H183.82L184.983 19.179L178.897 13.6877H186.876L186.958 13.6606Z" fill="#FB11EA"/>
<path d="M266.971 19.8552L283.175 0H264.537H253.23L259.56 5.73474L215.71 56.4277H236.107L261.859 25.9145L266.971 19.8552Z" fill="#FB11EA"/>
<path d="M267.945 25.2111L270.948 42.1177H253.23L273.518 56.4275H293.238L284.122 5.22064L267.945 25.2111Z" fill="#FB11EA"/>
<path d="M329.752 36.0988L336.353 56.4409H357.993L346.767 25.0351L329.752 36.0988Z" fill="#FB11EA"/>
<path d="M345.09 20.3014L375.793 0.0134277H353.259L330.997 14.9724L336.163 0.0134277H305.894L314.523 7.83107L297.697 56.4411H316.633L324.396 33.8809L328.21 31.3651L345.09 20.3014Z" fill="#FB11EA"/>
<path d="M433.837 0.0270996H381.764L386.201 4.05765C383.117 6.49221 380.953 9.41368 379.79 12.9032L369.213 43.6328C369.619 44.2549 380.277 55.9679 380.574 56.4818H416.227C420.663 56.4818 424.531 55.2375 427.778 52.7488C431.051 50.2602 433.323 47.2305 434.621 43.6057L445.198 12.8762C444.874 12.4434 434.324 0.541062 433.837 0.0270996ZM425.614 14.6886L416.227 41.7933C416.037 42.4696 415.497 42.8212 414.658 42.8212H389.636C388.798 42.8212 388.473 42.4696 388.689 41.7933L396.318 19.7741L389.582 13.6877H399.564C399.564 13.6877 399.672 13.6877 399.726 13.6877H424.748C425.586 13.6877 425.884 14.0393 425.614 14.7156V14.6886Z" fill="#FB11EA"/>
<path d="M507.009 0.0134277L492.51 41.7796C492.32 42.4559 491.779 42.8076 490.941 42.8076H465.621C464.783 42.8076 464.458 42.4559 464.674 41.7796L479.174 0.0134277H449.174L457.614 7.64171L445.198 43.592C445.847 44.3224 455.477 55.5214 456.559 56.4411H495.242C496.053 55.6566 510.309 44.3224 510.904 43.592L525.971 0.0134277H507.036H507.009Z" fill="#FB11EA"/>
<path d="M530.432 0L538.872 7.65534L536.789 13.6335H560.187L545.391 56.4277H564.326L577.04 19.7199L570.331 13.6606H579.123V13.6335H602.522L607.256 0H530.432Z" fill="#FB11EA"/>
<path d="M88.4721 7.23644C88.0663 4.99124 86.795 3.23294 84.685 1.93451C82.548 0.663132 79.8159 0.013916 76.4616 0.013916H20.2233L28.5279 7.534L11.5941 56.4416H63.315C66.5881 56.4416 69.5908 55.603 72.2417 53.9259C74.9197 52.2487 77.1379 50.1658 78.9503 47.7042C80.7627 45.2156 82.0882 42.5646 82.8997 39.6972C83.7112 36.8569 83.9006 34.233 83.4677 31.8255C82.9538 29.0122 81.6824 26.9023 79.6536 25.5497C80.8709 24.8194 82.0882 23.7103 83.2784 22.2496C84.4686 20.7888 85.4965 19.1658 86.3351 17.3804C87.1737 15.5951 87.8229 13.8098 88.2287 12.0244C88.6344 10.212 88.7426 8.61603 88.4721 7.20939V7.23644ZM64.0183 37.6414L63.5585 38.8857C63.2338 39.9407 62.4494 40.8334 61.2321 41.6178C60.0148 42.4023 58.7434 42.781 57.3909 42.781H35.2635L37.0488 37.6955L32.5584 33.6108H38.4825H60.6099C62.7469 33.6108 63.9372 34.3683 64.2077 35.8831C64.2888 36.3429 64.2077 36.9381 64.0183 37.6143V37.6414ZM67.6972 17.5698L67.3185 18.6789C66.9398 19.7879 66.1283 20.7077 64.911 21.4921C63.6937 22.2766 62.4223 22.6553 61.0698 22.6553H42.2155L43.7033 18.3002L38.5096 13.5933H45.3263L64.1806 13.5663C66.3176 13.5663 67.5079 14.4049 67.8054 16.082C67.9136 16.6501 67.8595 17.164 67.6972 17.5698Z" fill="#5BE0FF"/>
<path d="M156.491 0.0270507H96.8983L105.473 7.79059L88.6208 56.4547H107.556L113.94 37.9521H123.11L132.984 56.4547H154.733L143.02 37.9521H146.509C146.915 37.8168 160.684 29.3229 162.875 27.754L167.852 12.8491C167.338 12.308 157.086 0.40576 156.491 0V0.0270507ZM148.267 14.6885L145.075 23.9398C144.886 24.6161 144.345 24.9678 143.506 24.9678H118.485L120.405 19.4224L114.102 13.7147H122.38H147.402C148.24 13.7147 148.538 14.0663 148.267 14.7426V14.6885Z" fill="#5BE0FF"/>
<path d="M198.014 13.6606H237.075L241.782 0.0270996H173.29L181.27 7.24963L167.852 45.9862C168.339 46.5001 176.103 55.8056 176.319 56.4277H222.224L226.958 42.7942H187.897L189.493 38.1956L184.786 33.9486H196.932H225.633L229.582 22.5062H194.876L196.039 19.179L189.953 13.6877H197.933L198.014 13.6606Z" fill="#5BE0FF"/>
<path d="M278.028 19.8552L294.231 0H275.593H264.286L270.616 5.73474L226.767 56.4277H247.163L272.915 25.9145L278.028 19.8552Z" fill="#5BE0FF"/>
<path d="M279.001 25.2111L282.004 42.1177H264.286L284.574 56.4275H304.294L295.178 5.22064L279.001 25.2111Z" fill="#5BE0FF"/>
<path d="M340.808 36.0988L347.408 56.4409H369.049L357.823 25.0351L340.808 36.0988Z" fill="#5BE0FF"/>
<path d="M356.146 20.3014L386.848 0.0134277H364.315L342.052 14.9724L347.219 0.0134277H316.949L325.579 7.83107L308.753 56.4411H327.689L335.452 33.8809L339.266 31.3651L356.146 20.3014Z" fill="#5BE0FF"/>
<path d="M444.893 0.0270996H392.82L397.257 4.05765C394.173 6.49221 392.009 9.41368 390.846 12.9032L380.269 43.6328C380.675 44.2549 391.332 55.9679 391.63 56.4818H427.283C431.719 56.4818 435.587 55.2375 438.833 52.7488C442.107 50.2602 444.379 47.2305 445.677 43.6057L456.254 12.8762C455.929 12.4434 445.38 0.541062 444.893 0.0270996ZM436.669 14.6886L427.283 41.7933C427.093 42.4696 426.552 42.8212 425.714 42.8212H400.692C399.853 42.8212 399.529 42.4696 399.745 41.7933L407.373 19.7741L400.638 13.6877H410.62C410.62 13.6877 410.728 13.6877 410.782 13.6877H435.804C436.642 13.6877 436.94 14.0393 436.669 14.7156V14.6886Z" fill="#5BE0FF"/>
<path d="M518.065 0.0134277L503.566 41.7796C503.376 42.4559 502.835 42.8076 501.997 42.8076H476.677C475.839 42.8076 475.514 42.4559 475.731 41.7796L490.23 0.0134277H460.23L468.67 7.64171L456.254 43.592C456.903 44.3224 466.533 55.5214 467.615 56.4411H506.298C507.109 55.6566 521.365 44.3224 521.96 43.592L537.027 0.0134277H518.092H518.065Z" fill="#5BE0FF"/>
<path d="M541.488 0L549.928 7.65534L547.845 13.6335H571.244L556.447 56.4277H575.382L588.096 19.7199L581.388 13.6606H590.179V13.6335H613.578L618.312 0H541.488Z" fill="#5BE0FF"/>
<path d="M82.9442 7.23644C82.5385 4.99124 81.2671 3.23294 79.1571 1.93451C77.0201 0.663132 74.288 0.013916 70.9337 0.013916H14.6954L23 7.534L6.06625 56.4416H57.7871C61.0602 56.4416 64.0629 55.603 66.7138 53.9259C69.3918 52.2487 71.61 50.1658 73.4224 47.7042C75.2348 45.2156 76.5603 42.5646 77.3718 39.6972C78.1833 36.8569 78.3727 34.233 77.9398 31.8255C77.4259 29.0122 76.1545 26.9023 74.1257 25.5497C75.343 24.8194 76.5603 23.7103 77.7505 22.2496C78.9407 20.7888 79.9686 19.1658 80.8072 17.3804C81.6458 15.5951 82.295 13.8098 82.7008 12.0244C83.1065 10.212 83.2147 8.61603 82.9442 7.20939V7.23644ZM58.4904 37.6414L58.0306 38.8857C57.706 39.9407 56.9215 40.8334 55.7042 41.6178C54.4869 42.4023 53.2156 42.781 51.863 42.781H29.7356L31.5209 37.6955L27.0305 33.6108H32.9546H55.082C57.219 33.6108 58.4093 34.3683 58.6798 35.8831C58.7609 36.3429 58.6798 36.9381 58.4904 37.6143V37.6414ZM62.1693 17.5698L61.7906 18.6789C61.4119 19.7879 60.6004 20.7077 59.3831 21.4921C58.1658 22.2766 56.8944 22.6553 55.5419 22.6553H36.6876L38.1754 18.3002L32.9817 13.5933H39.7984L58.6527 13.5663C60.7897 13.5663 61.98 14.4049 62.2775 16.082C62.3857 16.6501 62.3316 17.164 62.1693 17.5698Z" fill="white"/>
<path d="M150.963 0.0270507H91.3706L99.9456 7.79059L83.0931 56.4547H102.029L108.412 37.9521H117.583L127.456 56.4547H149.205L137.492 37.9521H140.981C141.387 37.8168 155.156 29.3229 157.347 27.754L162.324 12.8491C161.81 12.308 151.558 0.40576 150.963 0V0.0270507ZM142.74 14.6885L139.548 23.9398C139.358 24.6161 138.817 24.9678 137.979 24.9678H112.957L114.878 19.4224L108.575 13.7147H116.852H141.874C142.713 13.7147 143.01 14.0663 142.74 14.7426V14.6885Z" fill="white"/>
<path d="M192.486 13.6606H231.547L236.254 0.0270996H167.761L175.741 7.24963L162.324 45.9862C162.811 46.5001 170.575 55.8056 170.791 56.4277H216.696L221.43 42.7942H182.369L183.965 38.1956L179.258 33.9486H191.404H220.105L224.054 22.5062H189.348L190.511 19.179L184.425 13.6877H192.405L192.486 13.6606Z" fill="white"/>
<path d="M272.5 19.8552L288.703 0H270.065H258.758L265.088 5.73474L221.239 56.4277H241.635L267.387 25.9145L272.5 19.8552Z" fill="white"/>
<path d="M273.474 25.2111L276.476 42.1177H258.758L279.046 56.4275H298.766L289.65 5.22064L273.474 25.2111Z" fill="white"/>
<path d="M335.28 36.0988L341.881 56.4409H363.521L352.295 25.0351L335.28 36.0988Z" fill="white"/>
<path d="M350.618 20.3014L381.32 0.0134277H358.787L336.525 14.9724L341.691 0.0134277H311.422L320.051 7.83107L303.225 56.4411H322.161L329.924 33.8809L333.738 31.3651L350.618 20.3014Z" fill="white"/>
<path d="M439.365 0.0270996H387.292L391.728 4.05765C388.645 6.49221 386.481 9.41368 385.317 12.9032L374.741 43.6328C375.146 44.2549 385.804 55.9679 386.102 56.4818H421.755C426.191 56.4818 430.059 55.2375 433.305 52.7488C436.578 50.2602 438.851 47.2305 440.149 43.6057L450.726 12.8762C450.401 12.4434 439.851 0.541062 439.365 0.0270996ZM431.141 14.6886L421.755 41.7933C421.565 42.4696 421.024 42.8212 420.186 42.8212H395.164C394.325 42.8212 394.001 42.4696 394.217 41.7933L401.845 19.7741L395.11 13.6877H405.091C405.091 13.6877 405.2 13.6877 405.254 13.6877H430.276C431.114 13.6877 431.412 14.0393 431.141 14.7156V14.6886Z" fill="white"/>
<path d="M512.537 0.0134277L498.038 41.7796C497.848 42.4559 497.307 42.8076 496.469 42.8076H471.149C470.311 42.8076 469.986 42.4559 470.203 41.7796L484.702 0.0134277H454.703L463.142 7.64171L450.726 43.592C451.375 44.3224 461.005 55.5214 462.087 56.4411H500.77C501.581 55.6566 515.837 44.3224 516.432 43.592L531.499 0.0134277H512.564H512.537Z" fill="white"/>
<path d="M535.96 0L544.4 7.65534L542.317 13.6335H565.716L550.919 56.4277H569.854L582.568 19.7199L575.86 13.6606H584.651V13.6335H608.05L612.784 0H535.96Z" fill="white"/>
</svg>
